<svg width="36" height="36" viewBox="0 0 36 36" fill="none" xmlns="http://www.w3.org/2000/svg">
<path d="M11 16.9008C11 13.6254 14.158 11 18.0017 11C21.8459 11 25 13.6257 25 16.9008C25 18.2374 24.4528 19.537 23.4866 20.5638C22.1129 22.0219 19.9394 22.8937 17.7674 22.8042L17.7636 22.804C17.3462 22.7841 16.9394 22.7306 16.5253 22.6249C16.2489 22.5561 16.0605 22.521 15.9056 22.5261C15.8954 22.5264 15.8854 22.5269 15.8754 22.5276L14.8588 23.1877C14.596 23.3584 14.3156 23.5168 14.0146 23.6501C13.9944 23.659 13.971 23.6696 13.945 23.6813L13.9449 23.6814C13.8335 23.7317 13.6748 23.8034 13.5164 23.8616C13.3352 23.9281 13.0584 24.0154 12.7821 23.9977L12.7791 23.9975C12.6636 23.9895 12.4304 23.9552 12.2741 23.7696C12.1093 23.574 12.1575 23.3659 12.1854 23.2825C12.2158 23.1913 12.2667 23.1126 12.2945 23.0708C12.3224 23.0289 12.3324 23.0152 12.3402 23.0044L12.3402 23.0044C12.3471 22.9949 12.3523 22.9877 12.3669 22.9652C12.5954 22.6066 12.7827 22.264 12.8993 21.9017L12.9002 21.899C12.9529 21.7391 12.9933 21.5764 13.0213 21.4108C13.0551 21.2002 13.0654 21.1315 13.0514 21.0823C13.0474 21.077 13.0326 21.0585 12.9932 21.0237C12.9653 20.999 12.9355 20.9749 12.8958 20.9428L12.8837 20.9331C12.8427 20.9 12.7889 20.8562 12.7383 20.8089C12.5618 20.6449 12.3848 20.4673 12.2237 20.2715C11.9607 19.9517 11.7369 19.6065 11.5553 19.2493L11.5536 19.246C11.1852 18.5057 11 17.7042 11 16.9008Z" fill="#191919"/>
<path d="M8 17.144C8 12.0939 12.4772 8 18 8C23.5228 8 28 12.0939 28 17.144C28 21.4048 24.8131 24.9849 20.5 26" stroke="#191919" stroke-width="1.6"/>
<rect x="16" y="24.9761" width="5.73393" height="2.97829" rx="1" transform="rotate(-7.77712 16 24.9761)" fill="#191919"/>
<path d="M26.999 13C29.2082 13 30.999 14.7909 30.999 17C30.999 19.2091 29.2082 21 26.999 21C26.985 21 26.971 20.9982 26.957 20.998C27.6222 19.7932 27.999 18.4367 27.999 17C27.999 15.563 27.6225 14.206 26.957 13.001C26.971 13.0008 26.985 13 26.999 13Z" fill="#191919"/>
<path d="M9.04102 13.001C8.3757 14.2059 8 15.5632 8 17C8 18.4365 8.37596 19.7933 9.04102 20.998C9.02735 20.9982 9.01369 21 9 21C6.79086 21 5 19.2091 5 17C5 14.7909 6.79086 13 9 13C9.01369 13 9.02736 13.0008 9.04102 13.001Z" fill="#191919"/>
<path d="M8 17C8 18.1747 8.25004 19.2968 8.70484 20.3255" stroke="#191919" stroke-width="1.6" stroke-linecap="round"/>
</svg>
