<svg width="24" height="22" viewBox="0 0 24 22" fill="none" xmlns="http://www.w3.org/2000/svg">
<g clip-path="url(#clip0_596_1034)">
<path d="M10.542 1.46045C11.3624 0.888961 12.4378 0.851044 13.3018 1.35498L13.4717 1.4624L18.5918 5.01025H18.583L21.21 6.83154C22.2863 7.57792 22.9902 8.93715 22.9902 10.4497V19.02C22.9902 20.2313 22.1405 21.0102 21.3301 21.0103H16.8799C16.3857 21.0102 15.9902 20.6108 15.9902 20.1196V16.4302C15.9902 14.5434 14.4678 12.9997 12.5703 12.9995H11.4199C9.53499 12.9996 8 14.5406 8 16.4302V20.1196C8 20.6138 7.60136 21.0101 7.11035 21.0103H2.66016C1.84968 21.0103 1.00004 20.2314 1 19.02V10.4497C1.00007 8.9375 1.70336 7.57901 2.7793 6.83252L10.5391 1.4624L10.542 1.46045Z" stroke="#D6DEEB" stroke-width="2"/>
</g>
<defs>
<clipPath id="clip0_596_1034">
<rect width="24" height="22" fill="white"/>
</clipPath>
</defs>
</svg>
