<svg width="36" height="36" viewBox="0 0 36 36" fill="none" xmlns="http://www.w3.org/2000/svg">
<path d="M10.5 16.1279C10.5 15.5756 10.9477 15.1279 11.5 15.1279H24.5C25.0523 15.1279 25.5 15.5756 25.5 16.1279V24.1279C25.5 25.2325 24.6046 26.1279 23.5 26.1279H12.5C11.3954 26.1279 10.5 25.2325 10.5 24.1279V16.1279Z" fill="#F9B46B"/>
<rect width="17" height="4" rx="1" transform="matrix(1 0 0 -1 9.5 17.1279)" fill="#FBD68B"/>
<rect x="16.5" y="13.1279" width="3" height="13" fill="#E46D60"/>
<path d="M14.914 10.5069C15.3045 10.1164 15.9377 10.1164 16.3282 10.5069L18.7403 12.919C18.9972 13.1759 19.0946 13.5521 18.9945 13.9014L18.8974 14.2405C18.7051 14.9119 17.9015 15.1844 17.3405 14.7685L14.4312 12.6117C13.9406 12.2479 13.8878 11.5331 14.3197 11.1012L14.914 10.5069Z" fill="#E46D60"/>
<path d="M21.0704 10.5069C20.6799 10.1164 20.0467 10.1164 19.6562 10.5069L17.2471 12.916C16.9886 13.1745 16.8917 13.5536 16.9946 13.9044L17.096 14.2501C17.2919 14.9183 18.0936 15.1867 18.6523 14.7712L21.5556 12.612C22.0452 12.2479 22.0974 11.5339 21.666 11.1025L21.0704 10.5069Z" fill="#E46D60"/>
</svg>
