<svg width="36" height="36" viewBox="0 0 36 36" fill="none" xmlns="http://www.w3.org/2000/svg">
<rect x="10" y="15.0625" width="16" height="12.4444" rx="3" fill="#71A6FF"/>
<path d="M21.1115 14.6207C21.1115 12.5345 19.6019 11.0651 18.0004 11.0651C16.399 11.0651 14.8893 12.5345 14.8893 14.6207C14.8893 16.7068 16.399 18.1762 18.0004 18.1762C19.6019 18.1762 21.1115 16.7068 21.1115 14.6207ZM23.7782 14.6207C23.7782 17.9347 21.3082 20.8429 18.0004 20.8429C14.6927 20.8429 12.2227 17.9347 12.2227 14.6207C12.2227 11.3067 14.6927 8.39844 18.0004 8.39844C21.3082 8.39844 23.7782 11.3067 23.7782 14.6207Z" fill="#71A6FF"/>
<circle cx="18.0004" cy="20.3989" r="1.77778" fill="white"/>
<path d="M17.1063 22.2095C17.4735 21.4676 18.5317 21.4676 18.8989 22.2095L19.5976 23.6216C19.9266 24.2862 19.443 25.0651 18.7014 25.0651H17.3038C16.5622 25.0651 16.0786 24.2862 16.4076 23.6216L17.1063 22.2095Z" fill="white"/>
</svg>
