<svg width="36" height="36" viewBox="0 0 36 36" fill="none" xmlns="http://www.w3.org/2000/svg">
<path d="M9.57218 7.43411C10.15 6.68751 10.8896 6.07725 11.7655 5.62054L13.309 4.81637L13.3136 4.81437C14.1369 4.40236 15.0317 4.59698 15.5512 5.33864L19.1125 10.4247C19.6459 11.1867 19.4982 12.2373 18.7558 12.7774L18.7572 12.7777L16.0245 14.8783C16.591 16.3573 17.3303 17.7203 18.3901 19.234C19.45 20.7477 20.4811 21.9006 21.6935 22.9354L24.5845 21.0982L24.5837 21.0988C25.3455 20.5852 26.383 20.8084 26.9163 21.5697L30.4776 26.6558C30.9952 27.395 30.8695 28.3433 30.1936 28.9505L30.1922 28.9502L28.8835 30.1885C28.8056 30.2621 28.7248 30.3328 28.6421 30.4004L28.3886 30.5934L28.3558 30.6164C26.2392 32.0853 23.7217 32.2363 21.1087 31.0915C18.3042 29.8628 15.4765 27.1987 12.6928 23.2233C10.2738 19.7684 8.78572 16.63 8.29711 13.8979C7.83753 11.3268 8.25235 9.13963 9.57218 7.43411ZM12.6977 7.3808C12.0607 7.71269 11.5335 8.14857 11.1277 8.67323C10.1794 9.89872 9.85718 11.5407 10.2243 13.594C10.6543 15.9991 12.0099 18.8632 14.2831 22.1097C16.8863 25.8274 19.4359 28.2223 21.8503 29.28C23.8807 30.1695 25.6724 30.0512 27.2203 28.9759L27.2627 28.9463C27.3543 28.8807 27.4415 28.8096 27.5243 28.7308L27.5251 28.7303L28.7495 27.5725L25.4744 22.8952L22.2472 24.9451C21.8085 25.2333 21.28 25.117 20.863 24.7782L20.2998 24.3058C19.0134 23.1863 17.9139 21.9387 16.7998 20.3475C15.5271 18.5299 14.6491 16.8641 13.9948 15L13.9911 14.9896L13.9919 14.989L13.9796 14.9511L13.9784 14.946C13.8825 14.6145 13.9015 14.3352 13.9921 14.109C14.0799 13.89 14.2244 13.7457 14.3408 13.6587L17.3737 11.3263L14.0998 6.65057L12.6977 7.3808Z" fill="#1E1E1E" stroke="#1E1E1E" stroke-width="0.6"/>
</svg>
