<svg width="40" height="40" viewBox="0 0 40 40" fill="none" xmlns="http://www.w3.org/2000/svg">
<g clip-path="url(#clip0_8648_22412)">
<path d="M9 13H13V9H9V13ZM16 14C16 15.0357 15.2128 15.887 14.2041 15.9893L14 16H8L7.7959 15.9893C6.85435 15.8938 6.1062 15.1457 6.01074 14.2041L6 14V8C6 6.89543 6.89543 6 8 6H14C15.1046 6 16 6.89543 16 8V14Z" fill="#71A6FF"/>
<path d="M9 31H13V27H9V31ZM16 32C16 33.0357 15.2128 33.887 14.2041 33.9893L14 34H8L7.7959 33.9893C6.85435 33.8938 6.1062 33.1457 6.01074 32.2041L6 32V26C6 24.8954 6.89543 24 8 24H14C15.1046 24 16 24.8954 16 26V32Z" fill="#71A6FF"/>
<path d="M27 13H31V9H27V13ZM34 14C34 15.0357 33.2128 15.887 32.2041 15.9893L32 16H26L25.7959 15.9893C24.8543 15.8938 24.1062 15.1457 24.0107 14.2041L24 14V8C24 6.89543 24.8954 6 26 6H32C33.1046 6 34 6.89543 34 8V14Z" fill="#71A6FF"/>
<path d="M11 18C11.5523 18 12 18.4477 12 19V21C12 21.5523 11.5523 22 11 22H7C6.44772 22 6 21.5523 6 21V19C6 18.4477 6.44772 18 7 18H11Z" fill="#71A6FF"/>
<path d="M21 6C21.5523 6 22 6.33579 22 6.75V8.25C22 8.66421 21.5523 9 21 9H19C18.4477 9 18 8.66421 18 8.25V6.75C18 6.33579 18.4477 6 19 6H21Z" fill="#71A6FF"/>
<path d="M28 18V22H25C24.4477 22 24 21.5523 24 21V19C24 18.4477 24.4477 18 25 18H28Z" fill="#71A6FF"/>
<path d="M31 18V22H26V18H31Z" fill="#71A6FF"/>
<path d="M18 32C18 31.4477 18.4477 31 19 31L21 31C21.5523 31 22 31.4477 22 32L22 33C22 33.5523 21.5523 34 21 34L19 34C18.4477 34 18 33.5523 18 33L18 32Z" fill="#71A6FF"/>
<path d="M18 24.6667C18 24.2985 18.4477 24 19 24L21 24C21.5523 24 22 24.2985 22 24.6667L22 25.3333C22 25.7015 21.5523 26 21 26L19 26C18.4477 26 18 25.7015 18 25.3333L18 24.6667Z" fill="#71A6FF"/>
<path d="M28 32C28 31.4477 28.4477 31 29 31L33 31C33.5523 31 34 31.4477 34 32L34 33C34 33.5523 33.5523 34 33 34L29 34C28.4477 34 28 33.5523 28 33L28 32Z" fill="#71A6FF"/>
<path d="M28 30C28 30.5523 27.5523 31 27 31L24 31L24 25C24 24.4477 24.4477 24 25 24L27 24C27.5523 24 28 24.4477 28 25L28 30Z" fill="#71A6FF"/>
<path d="M33.25 18C33.6642 18 34 18.4477 34 19V22H31V18H33.25Z" fill="#71A6FF"/>
<path d="M31 22L34 22L34 27.25C34 27.6642 33.6642 28 33.25 28L31.75 28C31.3358 28 31 27.6642 31 27.25L31 22Z" fill="#71A6FF"/>
<path d="M18 18V22H16.5C16.2239 22 16 21.5523 16 21V19C16 18.4477 16.2239 18 16.5 18H18Z" fill="#71A6FF"/>
<path d="M22 18V21C22 21.5523 21.5523 22 21 22H18V18H22Z" fill="#71A6FF"/>
<path d="M24 26L24 31L22.6667 31C22.2985 31 22 30.4404 22 29.75L22 27.25C22 26.5596 22.2985 26 22.6667 26L24 26Z" fill="#71A6FF"/>
<path d="M21 14C21.5523 14 22 14.2985 22 14.6667V18H18V14.6667C18 14.2985 18.4477 14 19 14H21Z" fill="#71A6FF"/>
</g>
<defs>
<clipPath id="clip0_8648_22412">
<rect width="30" height="30" fill="white" transform="translate(5 5)"/>
</clipPath>
</defs>
</svg>
