<svg width="26" height="26" viewBox="0 0 26 26" fill="none" xmlns="http://www.w3.org/2000/svg">
<path d="M5.98199 15.1275C5.81485 15.6533 5.25313 15.9443 4.72711 15.7779C4.20074 15.611 3.90893 15.0484 4.07574 14.5221C4.32684 13.7305 4.72875 13.0155 5.26422 12.3883L4.26519 11.0104C3.94133 10.5632 3.98426 9.87308 4.3609 9.46933C4.73776 9.06561 5.30646 9.10115 5.63043 9.54844L6.74859 11.0924C7.62887 10.5132 8.68273 10.0729 9.88434 9.79453L9.50445 8.41074C9.35858 7.87825 9.65498 7.27849 10.1666 7.0709C10.6784 6.86341 11.212 7.12712 11.358 7.65977L11.8609 9.49473C12.2729 9.46203 12.6974 9.44492 13.1334 9.44492C13.5853 9.44494 14.0246 9.4635 14.4507 9.49863L14.9537 7.65977C15.0996 7.12717 15.6323 6.8635 16.1441 7.0709C16.6558 7.27835 16.953 7.87816 16.8072 8.41074L16.4254 9.80625C17.4818 10.0552 18.4234 10.4284 19.232 10.9127L20.2193 9.54844C20.5433 9.10116 21.112 9.06561 21.4888 9.46934C21.8655 9.87308 21.9084 10.5632 21.5845 11.0104L20.7711 12.1334C21.3518 12.7449 21.7981 13.448 22.0904 14.232L22.19 14.5221L22.2164 14.6217C22.3196 15.1175 22.0326 15.6213 21.5396 15.7779C21.0463 15.9344 20.5214 15.688 20.3199 15.2232L20.2837 15.1275L20.2203 14.943C19.5136 13.049 17.245 11.4451 13.1334 11.4449C8.88869 11.4449 6.60776 13.1545 5.98199 15.1275Z" fill="#C7CED9"/>
<circle cx="13" cy="15" r="4" stroke="#C7CED9" stroke-width="2"/>
</svg>
