<svg width="36" height="36" viewBox="0 0 36 36" fill="none" xmlns="http://www.w3.org/2000/svg">
<g clip-path="url(#clip0_3075_30981)">
<circle cx="18" cy="18" r="18" fill="#F1F2F5"/>
<g clip-path="url(#clip1_3075_30981)">
<path d="M23.933 28.578C23.933 28.578 23.9118 28.5885 23.9012 28.5937C22.1474 29.4555 20.2418 29.3099 18.4117 28.1904C16.4445 26.9798 14.6172 24.6845 12.9824 21.3577C11.5617 18.4667 10.8324 15.9354 10.8204 13.8432C10.7969 11.8623 11.4009 10.2987 12.6002 9.19475C13.112 8.70572 13.7501 8.33938 14.4615 8.09536L15.7728 7.64892C16.362 7.45173 16.9114 7.65678 17.1673 8.17758L19.267 12.4503C19.5334 12.9924 19.3117 13.6423 18.7803 13.9034L16.2125 15.3104C16.4579 16.5885 16.8681 17.7725 17.5315 19.1223C18.1948 20.4721 18.8814 21.5202 19.7645 22.485L22.426 21.3223C22.9574 21.0611 23.6125 21.2934 23.8737 21.8248L25.9733 26.0975C26.2241 26.6077 26.0399 27.1996 25.5292 27.5298L24.3319 28.3424C24.2042 28.4316 24.0606 28.5153 23.9224 28.5832L23.933 28.578Z" fill="#CAD0DA"/>
</g>
</g>
<defs>
<clipPath id="clip0_3075_30981">
<rect width="36" height="36" fill="white"/>
</clipPath>
<clipPath id="clip1_3075_30981">
<rect width="9.56887" height="22.6076" fill="white" transform="translate(8 11.2188) rotate(-26.1699)"/>
</clipPath>
</defs>
</svg>
