<svg width="36" height="36" viewBox="0 0 36 36" fill="none" xmlns="http://www.w3.org/2000/svg">
<path d="M16.7824 9.30282C17.4411 8.59798 18.5589 8.59798 19.2176 9.30282L20.353 10.5176C20.6816 10.8692 21.1461 11.0616 21.627 11.0453L23.2888 10.9892C24.253 10.9566 25.0434 11.747 25.0108 12.7112L24.9547 14.373C24.9384 14.8539 25.1308 15.3184 25.4824 15.647L26.6972 16.7824C27.402 17.4411 27.402 18.5589 26.6972 19.2176L25.4824 20.353C25.1308 20.6816 24.9384 21.1461 24.9547 21.627L25.0108 23.2888C25.0434 24.253 24.253 25.0434 23.2888 25.0108L21.627 24.9547C21.1461 24.9384 20.6816 25.1308 20.353 25.4824L19.2176 26.6972C18.5589 27.402 17.4411 27.402 16.7824 26.6972L15.647 25.4824C15.3184 25.1308 14.8539 24.9384 14.373 24.9547L12.7112 25.0108C11.747 25.0434 10.9566 24.253 10.9892 23.2888L11.0453 21.627C11.0616 21.1461 10.8692 20.6816 10.5176 20.353L9.30282 19.2176C8.59798 18.5589 8.59798 17.4411 9.30282 16.7824L10.5176 15.647C10.8692 15.3184 11.0616 14.8539 11.0453 14.373L10.9892 12.7112C10.9566 11.747 11.747 10.9566 12.7112 10.9892L14.373 11.0453C14.8539 11.0616 15.3184 10.8692 15.647 10.5176L16.7824 9.30282Z" fill="#71A6FF"/>
<path d="M14.7266 17.4582L17.4541 20.1857L21.2726 16.3672" stroke="white" stroke-width="2" stroke-linecap="round" stroke-linejoin="round"/>
</svg>
