<svg width="30" height="48" viewBox="0 0 30 48" fill="none" xmlns="http://www.w3.org/2000/svg">
<g clip-path="url(#clip0_3075_23497)">
<path d="M8.17063 17.2986H13.3962V23.3097H15.4471L23.9377 14.196C21.5587 12.5155 18.6546 11.5137 15.5127 11.5137H0V47.9924L8.17063 40.026V17.2905V17.2986Z" fill="#E7E9EE"/>
<path d="M27.5638 33.6835C29.0978 31.4212 30.0002 28.6984 30.0002 25.7737C30.0002 22.8651 29.1142 20.1585 27.5966 17.9043L21.321 24.6345C20.6729 25.3293 20.6729 26.4039 21.3292 27.0906L27.5638 33.6835Z" fill="#E7E9EE"/>
<path d="M15.4735 28.4639H13.4062V40.0336H15.5227C18.6565 40.0336 21.5441 39.0479 23.9149 37.3836L15.4735 28.4639Z" fill="#E7E9EE"/>
<path d="M2.80748 11.6341H10.8797L18.2054 12.2239L18.9437 12.4339C18.9437 12.4339 18.9765 11.6341 18.9929 11.6341C19.4277 10.2687 20.289 7.42469 20.6008 5.46138C20.5187 5.48562 20.4367 5.4937 20.3547 5.4937C20.1332 5.4937 19.9281 5.42906 19.7722 5.30787C19.2308 5.83303 18.2874 6.47939 16.8518 6.57634C16.5154 6.60058 16.1463 6.5925 15.7525 6.54403C14.2021 6.3582 13.1356 5.56641 12.4301 4.56456C11.6016 3.38496 11.2652 1.9145 11.2324 0.807617C11.1258 0.839935 11.0109 0.864173 10.8961 0.864173C10.7812 0.864173 10.6582 0.839935 10.5597 0.807617C10.5269 1.9145 10.1988 3.38496 9.36204 4.56456C8.65654 5.56641 7.59009 6.3582 6.03964 6.54403C5.64588 6.5925 5.27672 6.60058 4.94038 6.57634C3.50478 6.47939 2.56138 5.84111 2.01995 5.30787C1.86409 5.42098 1.659 5.4937 1.43751 5.4937C1.35548 5.4937 1.26524 5.48562 1.19141 5.46138C1.50314 7.42469 2.3645 11.0685 2.79928 12.4339C2.81569 12.4339 2.8321 11.626 2.8485 11.626L2.80748 11.6341Z" fill="#E7E9EE"/>
<path d="M2.1985 5.09816C2.1985 5.52637 1.83755 5.88187 1.38636 5.88187C0.93517 5.88187 0.574219 5.53445 0.574219 5.09816C0.574219 4.66187 0.93517 4.31445 1.38636 4.31445C1.83755 4.31445 2.1985 4.66187 2.1985 5.09816Z" fill="#E7E9EE"/>
<path d="M11.8298 0.921057C11.8298 1.43006 11.4032 1.84211 10.87 1.84211C10.3367 1.84211 9.91016 1.43006 9.91016 0.921057C9.91016 0.412052 10.3367 0 10.87 0C11.4032 0 11.8298 0.412052 11.8298 0.921057Z" fill="#E7E9EE"/>
<path d="M21.0188 5.09816C21.0188 5.52637 20.6579 5.88187 20.2067 5.88187C19.7555 5.88187 19.3945 5.53445 19.3945 5.09816C19.3945 4.66187 19.7555 4.31445 20.2067 4.31445C20.6579 4.31445 21.0188 4.66187 21.0188 5.09816Z" fill="#E7E9EE"/>
</g>
<defs>
<clipPath id="clip0_3075_23497">
<rect width="30" height="48" fill="white"/>
</clipPath>
</defs>
</svg>
