<svg width="18" height="18" viewBox="0 0 18 18" fill="none" xmlns="http://www.w3.org/2000/svg">
<path d="M13.8965 6.80347C13.8965 6.02169 13.685 5.27904 13.3091 4.63477L13.3062 4.6311C13.0095 4.11518 12.6036 3.65911 12.1108 3.27905C11.7875 3.02965 11.4307 2.81652 11.051 2.64917L10.887 2.58032C10.2952 2.34375 9.64187 2.21338 8.94751 2.21338C8.25323 2.2134 7.60052 2.34378 7.00879 2.58032L7.00366 2.58179C6.26192 2.87179 5.62117 3.33039 5.11694 3.90381C4.91662 4.13162 4.73635 4.37961 4.58594 4.63403L4.58667 4.63477C4.21078 5.27906 3.99854 6.02169 3.99854 6.80347C3.9986 7.50145 4.24313 8.18076 4.51196 8.70923C4.64388 8.96854 4.77596 9.18002 4.87378 9.3252C4.9225 9.39749 4.96237 9.45299 4.98877 9.48853C5.00195 9.50627 5.01222 9.51906 5.01807 9.52661C5.02027 9.52945 5.02143 9.53189 5.02246 9.5332L5.02393 9.53467C5.04456 9.56045 5.06345 9.58758 5.08032 9.61597C5.08033 9.61596 5.08498 9.62351 5.09717 9.64014C5.11011 9.6578 5.12785 9.68054 5.15137 9.70972C5.20009 9.77018 5.2591 9.83919 5.33521 9.92944C5.48149 10.1029 5.67056 10.3299 5.85449 10.5916C6.21471 11.104 6.61328 11.8312 6.61328 12.6914V15.071C6.61329 15.4653 6.93276 15.7851 7.32739 15.7852H10.5676C10.9623 15.7852 11.2825 15.4653 11.2825 15.071V12.6914C11.2825 11.8406 11.6819 11.1131 12.0398 10.6011C12.2232 10.3387 12.412 10.1105 12.5583 9.9353C12.6344 9.84429 12.6932 9.77392 12.7422 9.71265C12.7659 9.68302 12.7839 9.65975 12.7971 9.6416C12.8099 9.62412 12.8146 9.61615 12.8147 9.61597C12.8319 9.587 12.8514 9.55946 12.8726 9.5332L12.8718 9.53394C12.8727 9.53283 12.8748 9.53039 12.8777 9.52661C12.8835 9.51906 12.8931 9.50619 12.9062 9.48853C12.9326 9.45299 12.9725 9.39755 13.0212 9.3252C13.1191 9.18004 13.2511 8.96857 13.3831 8.70923C13.6519 8.18076 13.8964 7.50145 13.8965 6.80347ZM15.3254 6.80347C15.3254 7.81398 14.9788 8.72359 14.6567 9.35669C14.4934 9.67775 14.33 9.93993 14.2063 10.1235C14.1443 10.2156 14.0915 10.2889 14.0532 10.3403C14.0342 10.366 14.0185 10.3863 14.0071 10.4011C14.0046 10.4043 14.0019 10.4072 13.9998 10.4099C13.901 10.5575 13.7596 10.7254 13.6548 10.8508C13.5106 11.0235 13.3557 11.2118 13.2102 11.4199C12.9104 11.8489 12.7107 12.2797 12.7107 12.6914V15.071C12.7107 16.2547 11.7509 17.2134 10.5676 17.2134H7.32739C6.14421 17.2133 5.18434 16.2547 5.18433 15.071V12.6914C5.18432 12.268 4.98385 11.8367 4.68628 11.4133C4.54135 11.2072 4.38665 11.0219 4.24243 10.8508C4.13584 10.7244 3.98866 10.5524 3.88867 10.4011C3.87721 10.3863 3.86093 10.3661 3.8418 10.3403C3.80357 10.2889 3.75141 10.2155 3.68945 10.1235C3.56574 9.93995 3.40237 9.6778 3.23901 9.35669C2.91696 8.72359 2.57037 7.814 2.57031 6.80347C2.57031 5.76059 2.85334 4.77045 3.35254 3.91479L3.35474 3.91187C3.5506 3.57996 3.78292 3.2573 4.04395 2.96045C4.69435 2.22079 5.52175 1.62892 6.47852 1.25391V1.25317C7.24051 0.948608 8.07347 0.785179 8.94751 0.785156C9.82172 0.785156 10.6551 0.948519 11.4172 1.25317L11.4165 1.25391C11.9824 1.4798 12.5106 1.78305 12.9832 2.14746C13.6117 2.63226 14.1452 3.22655 14.5417 3.91479H14.5425C15.0417 4.77047 15.3254 5.7606 15.3254 6.80347Z" fill="#121619"/>
<path d="M11.8401 12.4824C12.2543 12.4824 12.5901 12.8182 12.5901 13.2324C12.5901 13.6466 12.2543 13.9824 11.8401 13.9824H6.05469C5.64047 13.9824 5.30469 13.6466 5.30469 13.2324C5.30469 12.8182 5.64047 12.4824 6.05469 12.4824H11.8401Z" fill="#121619"/>
<path d="M8.25 7.5V4.5C8.25 4.08579 8.58579 3.75 9 3.75C9.41421 3.75 9.75 4.08579 9.75 4.5V7.5C9.75 7.91421 9.41421 8.25 9 8.25C8.58579 8.25 8.25 7.91421 8.25 7.5Z" fill="#121619"/>
<path d="M8.25 9.82471V9.75C8.25 9.33579 8.58579 9 9 9C9.41421 9 9.75 9.33579 9.75 9.75V9.82471C9.75 10.2389 9.41421 10.5747 9 10.5747C8.58579 10.5747 8.25 10.2389 8.25 9.82471Z" fill="#121619"/>
</svg>
