<svg width="36" height="36" viewBox="0 0 36 36" fill="none" xmlns="http://www.w3.org/2000/svg">
<rect x="9" y="12.8008" width="3.80019" height="7.60037" rx="1" fill="#71A6FF"/>
<path d="M13.75 14.2773C13.75 13.3993 14.3226 12.624 15.1618 12.3658L23.5124 9.79636C24.7985 9.40064 26.1006 10.3623 26.1006 11.7079V21.4928C26.1006 22.8384 24.7985 23.8001 23.5124 23.4044L15.1618 20.835C14.3226 20.5768 13.75 19.8014 13.75 18.9234V14.2773Z" fill="#C4DAFF"/>
<path d="M12.8008 22.6849C12.8008 22.0182 13.4408 21.5382 14.0808 21.7249L15.881 22.2499C16.3076 22.3744 16.601 22.7655 16.601 23.2099V27.0019C16.601 27.5542 16.1533 28.0019 15.601 28.0019H13.8008C13.2485 28.0019 12.8008 27.5542 12.8008 27.0019V22.6849Z" fill="#71A6FF"/>
</svg>
