<svg width="36" height="36" viewBox="0 0 36 36" fill="none" xmlns="http://www.w3.org/2000/svg">
<path d="M14.3428 7.2002H21.6572C22.4832 7.2002 23.204 7.76218 23.4043 8.56348L23.6465 9.5332C23.8913 10.5126 24.7717 11.2002 25.7812 11.2002H28C29.5464 11.2002 30.7998 12.4536 30.7998 14V24C30.7998 25.5464 29.5464 26.7998 28 26.7998H8C6.4536 26.7998 5.2002 25.5464 5.2002 24V14C5.2002 12.4536 6.4536 11.2002 8 11.2002H10.2188C11.2283 11.2002 12.1087 10.5126 12.3535 9.5332L12.5957 8.56348C12.796 7.76218 13.5168 7.2002 14.3428 7.2002Z" stroke="#1E1E1E" stroke-width="2.4"/>
<circle cx="18" cy="18" r="5" stroke="#1E1E1E" stroke-width="2.4"/>
<path d="M26 15H27" stroke="#1E1E1E" stroke-width="2.4" stroke-linecap="round"/>
</svg>
