<svg width="30" height="30" viewBox="0 0 30 30" fill="none" xmlns="http://www.w3.org/2000/svg">
<circle cx="15" cy="15" r="15" fill="white"/>
<path d="M14.9997 7C15.6794 7 16.2305 7.55104 16.2305 8.23079L16.2305 21.7695C16.2305 22.4492 15.6794 23.0002 14.9997 23.0002C14.3199 23.0002 13.7689 22.4492 13.7689 21.7695L13.7689 8.23079C13.7689 7.55104 14.3199 7 14.9997 7Z" fill="#E7E9EE"/>
<path d="M7 14.9997C7 15.6794 7.55104 16.2305 8.23079 16.2305L21.7695 16.2305C22.4492 16.2305 23.0002 15.6794 23.0002 14.9997C23.0002 14.3199 22.4492 13.7689 21.7695 13.7689L8.23079 13.7689C7.55104 13.7689 7 14.3199 7 14.9997Z" fill="#E7E9EE"/>
</svg>
