<svg width="60" height="40" viewBox="0 0 60 40" fill="none" xmlns="http://www.w3.org/2000/svg">
<g clip-path="url(#clip0_7345_22303)">
<rect x="14" y="12" width="32" height="23.2727" rx="1.74545" fill="#D2DBE9"/>
<rect x="14" y="25.9639" width="32" height="4.07273" fill="#B0BBCE"/>
<g clip-path="url(#clip1_7345_22303)">
<rect x="16.9102" y="15.7812" width="5.81818" height="4.65455" rx="0.581818" fill="white"/>
<path d="M18.6556 15.7812V20.4358M22.7283 17.3813H20.9829V20.4358M20.9829 18.8358H22.7283M16.9102 18.8358H18.6556M16.9102 17.3813H18.6556" stroke="#A8AFBB" stroke-width="0.145455"/>
</g>
</g>
<rect x="36" y="0.5" width="20" height="20" rx="10" fill="#145ED9"/>
<path d="M44.5189 10.348C44.5189 11.764 44.2949 12.548 43.8389 13.052C43.4949 13.436 42.9989 13.628 42.3749 13.628C41.7429 13.628 41.2469 13.436 40.9029 13.052C40.4469 12.548 40.2229 11.764 40.2229 10.348C40.2229 8.948 40.4469 8.164 40.9029 7.652C41.2469 7.276 41.7429 7.076 42.3749 7.076C42.9989 7.076 43.4949 7.276 43.8389 7.652C44.2949 8.164 44.5189 8.948 44.5189 10.348ZM43.3829 10.348C43.3829 9.228 43.3029 8.676 43.0709 8.356C42.8949 8.14 42.6709 8.036 42.3749 8.036C42.0709 8.036 41.8469 8.14 41.6789 8.356C41.4389 8.676 41.3589 9.228 41.3589 10.348C41.3589 11.484 41.4389 12.036 41.6789 12.348C41.8469 12.572 42.0709 12.676 42.3749 12.676C42.6709 12.676 42.8949 12.572 43.0709 12.348C43.3029 12.036 43.3829 11.484 43.3829 10.348ZM47.6551 13.516H46.7431L49.3351 7.188H50.2471L47.6551 13.516ZM47.9591 8.788C47.9591 9.908 47.5191 10.5 46.6151 10.5C45.7191 10.5 45.2791 9.916 45.2791 8.788C45.2791 7.66 45.7351 7.076 46.6151 7.076C47.5031 7.076 47.9591 7.66 47.9591 8.788ZM46.1831 8.788C46.1831 9.452 46.2791 9.732 46.6151 9.732C46.9671 9.732 47.0551 9.452 47.0551 8.788C47.0551 8.1 46.9431 7.844 46.6151 7.844C46.2951 7.844 46.1831 8.1 46.1831 8.788ZM49.0231 11.916C49.0231 10.804 49.4791 10.204 50.3671 10.204C51.2471 10.204 51.7111 10.788 51.7111 11.916C51.7111 13.052 51.2471 13.628 50.3671 13.628C49.4791 13.628 49.0231 13.028 49.0231 11.916ZM50.8071 11.916C50.8071 11.22 50.6871 10.972 50.3671 10.972C50.0391 10.972 49.9271 11.22 49.9271 11.916C49.9271 12.58 50.0231 12.86 50.3671 12.86C50.7111 12.86 50.8071 12.58 50.8071 11.916Z" fill="white"/>
<defs>
<clipPath id="clip0_7345_22303">
<rect width="32" height="23.2727" fill="white" transform="translate(14 12)"/>
</clipPath>
<clipPath id="clip1_7345_22303">
<rect width="5.81818" height="4.65455" fill="white" transform="translate(16.9102 15.7817)"/>
</clipPath>
</defs>
</svg>
