<svg width="36" height="36" viewBox="0 0 36 36" fill="none" xmlns="http://www.w3.org/2000/svg">
<path d="M17.5166 7.75977C17.7023 7.7689 17.8863 7.78399 18.0684 7.80566C18.0845 7.80759 18.1005 7.81163 18.1162 7.81445C21.9118 8.28966 24.8447 11.4368 24.8447 15.251V16.1328C24.8448 16.1388 24.8457 16.1453 24.8457 16.1514V19.7607L24.8506 19.9277C24.86 20.0948 24.8838 20.2614 24.9209 20.4248L25.2031 21.6689C25.4026 22.5486 24.7873 23.3894 23.917 23.4912L23.7402 23.501H10.499L10.3213 23.4912C10.2669 23.4848 10.2134 23.4758 10.1611 23.4639C10.0566 23.4399 9.95665 23.4047 9.8623 23.3604C9.48501 23.1832 9.19763 22.8544 9.07031 22.4609C9.00668 22.2642 8.9828 22.051 9.00781 21.833C9.01406 21.7786 9.02368 21.7239 9.03613 21.6689L9.31836 20.4248C9.35544 20.2614 9.37925 20.0948 9.38867 19.9277L9.39258 19.7607V16.1514C9.39258 16.1452 9.39343 16.139 9.39355 16.1328V15.251C9.39355 11.4382 12.3244 8.29143 16.1182 7.81445C16.1349 7.81138 16.1517 7.80772 16.1689 7.80566C16.2139 7.80031 16.2595 7.79659 16.3047 7.79199C16.3213 7.7903 16.3379 7.7887 16.3545 7.78711C16.4761 7.77551 16.5985 7.76583 16.7217 7.75977L17.1191 7.75H17.1201L17.5166 7.75977ZM17.1191 9.55078C13.796 9.55116 11.1934 12.1529 11.1934 15.251V19.7607C11.1934 19.8375 11.1902 19.9143 11.1865 19.9912L11.1855 20.0303C11.1847 20.0446 11.1826 20.0589 11.1816 20.0732C11.1712 20.2358 11.1541 20.3983 11.127 20.5596L11.0752 20.8232C10.9731 21.2725 11.3147 21.7002 11.7754 21.7002H22.4639C22.9245 21.7002 23.2661 21.2725 23.1641 20.8232L23.1123 20.5596C23.0991 20.481 23.0875 20.4022 23.0781 20.3232C23.0754 20.3008 23.0737 20.2783 23.0713 20.2559C23.0643 20.1885 23.0589 20.1211 23.0547 20.0537C23.0542 20.0459 23.0532 20.0381 23.0527 20.0303L23.0518 20.0166C23.0471 19.9313 23.0449 19.8459 23.0449 19.7607V15.251C23.0449 12.2497 20.6026 9.71442 17.4287 9.55859L17.1191 9.55078Z" fill="#191919"/>
<path d="M13.3477 25.0008C13.3477 24.5037 13.7508 24.1006 14.2479 24.1006C14.7449 24.1006 15.1481 24.5037 15.1481 25.0008C15.1481 25.2753 15.2942 25.5924 15.6666 25.8717C16.0394 26.1512 16.5955 26.3507 17.248 26.3507C17.9006 26.3507 18.4567 26.1512 18.8294 25.8717C19.2018 25.5924 19.348 25.2753 19.348 25.0008C19.348 24.5037 19.7511 24.1006 20.2482 24.1006C20.7453 24.1006 21.1484 24.5037 21.1484 25.0008C21.1484 25.9688 20.6231 26.7766 19.9098 27.3117C19.1967 27.8466 18.2524 28.1511 17.248 28.1511C16.2436 28.1511 15.2994 27.8466 14.5863 27.3117C13.873 26.7766 13.3477 25.9688 13.3477 25.0008Z" fill="#191919"/>
</svg>
