<svg width="36" height="36" viewBox="0 0 36 36" fill="none" xmlns="http://www.w3.org/2000/svg">
<g clip-path="url(#clip0_3075_30982)">
<circle cx="18" cy="18" r="18" fill="#F1F2F5"/>
<g clip-path="url(#clip1_3075_30982)">
<path d="M18 10C12.752 10 8.5 13.466 8.5 17.7449C8.5 20.5282 10.3025 22.9702 13.0078 24.3355C12.8092 25.0988 12.2886 27.1064 12.1832 27.5346C12.0538 28.0683 12.3728 28.059 12.5805 27.9162C12.743 27.8045 15.1834 26.0917 16.2366 25.3532C16.8084 25.4401 17.3982 25.4866 18 25.4866C23.248 25.4866 27.5 22.0207 27.5 17.7418C27.5 13.4629 23.248 10 18 10Z" fill="#CAD0DA"/>
<path d="M11.3733 16.3158H12.3513C12.3513 16.3158 12.3573 19.0867 12.3513 19.7321C12.3513 20.2037 13.3684 20.2099 13.3684 19.7383V16.353C13.3684 16.353 13.6994 16.353 14.3464 16.353C14.9542 16.353 14.9542 15.3663 14.3464 15.3663C13.6603 15.3663 11.3733 15.3477 11.3733 15.3477C10.7985 15.3477 10.8016 16.3158 11.3733 16.3158Z" fill="#F1F2F5"/>
<mask id="mask0_3075_30982" style="mask-type:luminance" maskUnits="userSpaceOnUse" x="10" y="15" width="5" height="6">
<path d="M11.3733 16.3158H12.3513C12.3513 16.3158 12.3573 19.0867 12.3513 19.7321C12.3513 20.2037 13.3684 20.2099 13.3684 19.7383V16.353C13.3684 16.353 13.6994 16.353 14.3464 16.353C14.9542 16.353 14.9542 15.3663 14.3464 15.3663C13.6603 15.3663 11.3733 15.3477 11.3733 15.3477C10.7985 15.3477 10.8016 16.3158 11.3733 16.3158Z" fill="white"/>
</mask>
<g mask="url(#mask0_3075_30982)">
<path d="M14.9506 15.3516H10.7949V20.2107H14.9506V15.3516Z" fill="#F1F2F5"/>
</g>
<path d="M16.0527 16.4975L16.5974 18.2568H15.4629L16.0527 16.4975ZM15.4419 15.6752C15.2011 16.2213 14.3315 18.8029 14.0426 19.4856C13.835 19.9789 14.7347 20.3823 14.9423 19.8889L15.1379 19.1846H16.9284C16.9284 19.1846 16.8682 19.2125 17.1029 19.861C17.2955 20.3854 18.2254 20.0224 18.0328 19.498C17.7589 18.7502 16.808 16.0568 16.6335 15.6752C16.5523 15.4983 16.2664 15.3711 15.9895 15.3711C15.7608 15.3711 15.5352 15.458 15.4419 15.6752Z" fill="#F1F2F5"/>
<mask id="mask1_3075_30982" style="mask-type:luminance" maskUnits="userSpaceOnUse" x="14" y="15" width="5" height="6">
<path d="M16.0527 16.4975L16.5974 18.2568H15.4629L16.0527 16.4975ZM15.4419 15.6752C15.2011 16.2213 14.3315 18.8029 14.0426 19.4856C13.835 19.9789 14.7347 20.3823 14.9423 19.8889L15.1379 19.1846H16.9284C16.9284 19.1846 16.8682 19.2125 17.1029 19.861C17.2955 20.3854 18.2254 20.0224 18.0328 19.498C17.7589 18.7502 16.808 16.0568 16.6335 15.6752C16.5523 15.4983 16.2664 15.3711 15.9895 15.3711C15.7608 15.3711 15.5352 15.458 15.4419 15.6752Z" fill="white"/>
</mask>
<g mask="url(#mask1_3075_30982)">
<path d="M18.2263 15.3711H13.8359V20.3823H18.2263V15.3711Z" fill="#F1F2F5"/>
</g>
<path d="M18.375 15.8334C18.375 16.7116 18.381 19.5383 18.381 19.5383C18.381 19.5383 18.3028 20.0999 18.7692 20.0999C19.2356 20.0999 20.2738 20.0937 20.7312 20.0937C21.1886 20.0937 21.1886 19.0853 20.7312 19.0853C20.2738 19.0853 19.4342 19.0791 19.4342 19.0791C19.4342 19.0791 19.4372 16.4633 19.4342 15.8303C19.4342 15.5231 19.1694 15.3711 18.9046 15.3711C18.6398 15.3711 18.375 15.5262 18.375 15.8334Z" fill="#F1F2F5"/>
<mask id="mask2_3075_30982" style="mask-type:luminance" maskUnits="userSpaceOnUse" x="18" y="15" width="4" height="6">
<path d="M18.375 15.8334C18.375 16.7116 18.381 19.5383 18.381 19.5383C18.381 19.5383 18.3028 20.0999 18.7692 20.0999C19.2356 20.0999 20.2738 20.0937 20.7312 20.0937C21.1886 20.0937 21.1886 19.0853 20.7312 19.0853C20.2738 19.0853 19.4342 19.0791 19.4342 19.0791C19.4342 19.0791 19.4372 16.4633 19.4342 15.8303C19.4342 15.5231 19.1694 15.3711 18.9046 15.3711C18.6398 15.3711 18.375 15.5262 18.375 15.8334Z" fill="white"/>
</mask>
<g mask="url(#mask2_3075_30982)">
<path d="M21.1916 15.3711H18.3027V20.0999H21.1916V15.3711Z" fill="#F1F2F5"/>
</g>
<path d="M21.3148 15.6946C21.3238 16.0794 21.3027 19.5577 21.3027 19.8153C21.3027 20.2218 22.3078 20.2218 22.3078 19.8153C22.3078 19.3436 22.3078 18.4469 22.3078 18.4469L22.6027 18.2018L23.8906 20.017C24.1524 20.3707 24.9709 19.7315 24.7121 19.3778L23.343 17.5191C23.343 17.5191 24.2728 16.4827 24.6399 16.1073C24.8536 15.887 24.1916 15.2012 23.9779 15.4215C23.7703 15.6325 22.3138 17.1344 22.3138 17.1344C22.3138 17.1344 22.3259 16.1911 22.3138 15.6698C22.3078 15.4712 22.0731 15.375 21.8324 15.375C21.5736 15.375 21.3118 15.4836 21.3148 15.6977" fill="#F1F2F5"/>
<mask id="mask3_3075_30982" style="mask-type:luminance" maskUnits="userSpaceOnUse" x="21" y="15" width="4" height="6">
<path d="M21.3148 15.6946C21.3238 16.0794 21.3027 19.5577 21.3027 19.8153C21.3027 20.2218 22.3078 20.2218 22.3078 19.8153C22.3078 19.3436 22.3078 18.4469 22.3078 18.4469L22.6027 18.2018L23.8906 20.017C24.1524 20.3707 24.9709 19.7315 24.7121 19.3778L23.343 17.5191C23.343 17.5191 24.2728 16.4827 24.6399 16.1073C24.8536 15.887 24.1916 15.2012 23.9779 15.4215C23.7703 15.6325 22.3138 17.1344 22.3138 17.1344C22.3138 17.1344 22.3259 16.1911 22.3138 15.6698C22.3078 15.4712 22.0731 15.375 21.8324 15.375C21.5736 15.375 21.3118 15.4836 21.3148 15.6977" fill="white"/>
</mask>
<g mask="url(#mask3_3075_30982)">
<path d="M24.9709 15.1992H21.3027V20.3718H24.9709V15.1992Z" fill="#F1F2F5"/>
</g>
</g>
</g>
<defs>
<clipPath id="clip0_3075_30982">
<rect width="36" height="36" fill="white"/>
</clipPath>
<clipPath id="clip1_3075_30982">
<rect width="19" height="18" fill="white" transform="translate(8.5 10)"/>
</clipPath>
</defs>
</svg>
