<svg width="40" height="40" viewBox="0 0 40 40" fill="none" xmlns="http://www.w3.org/2000/svg">
<g clip-path="url(#clip0_3505_18226)">
<g clip-path="url(#clip1_3505_18226)">
<path d="M20 5C10.6088 5 3 11.1617 3 18.7687C3 23.7168 6.22553 28.0581 11.0665 30.4853C10.7111 31.8423 9.77954 35.4113 9.59107 36.1726C9.35952 37.1214 9.93031 37.1048 10.3019 36.8511C10.5927 36.6525 14.9598 33.6075 16.8445 32.2946C17.8676 32.4491 18.923 32.5318 20 32.5318C29.3912 32.5318 37 26.3701 37 18.7631C37 11.1562 29.3912 5 20 5Z" fill="#AFB8C5"/>
<path d="M8.14241 16.2308H9.89249C9.89249 16.2308 9.90326 21.1569 9.89249 22.3043C9.89249 23.1428 11.7126 23.1538 11.7126 22.3153V16.297C11.7126 16.297 12.3049 16.297 13.4627 16.297C14.5504 16.297 14.5504 14.5429 13.4627 14.5429C12.2349 14.5429 8.14241 14.5098 8.14241 14.5098C7.1139 14.5098 7.11929 16.2308 8.14241 16.2308Z" fill="#E7E9EE"/>
<mask id="mask0_3505_18226" style="mask-type:luminance" maskUnits="userSpaceOnUse" x="7" y="14" width="8" height="9">
<path d="M8.14241 16.2308H9.89249C9.89249 16.2308 9.90326 21.1569 9.89249 22.3043C9.89249 23.1428 11.7126 23.1538 11.7126 22.3153V16.297C11.7126 16.297 12.3049 16.297 13.4627 16.297C14.5504 16.297 14.5504 14.5429 13.4627 14.5429C12.2349 14.5429 8.14241 14.5098 8.14241 14.5098C7.1139 14.5098 7.11929 16.2308 8.14241 16.2308Z" fill="white"/>
</mask>
<g mask="url(#mask0_3505_18226)">
<path d="M14.5459 14.5156H7.10938V23.1541H14.5459V14.5156Z" fill="#E7E9EE"/>
</g>
<path d="M16.5156 16.5512L17.4903 19.679H15.4602L16.5156 16.5512ZM15.4225 15.0894C14.9917 16.0603 13.4355 20.6498 12.9185 21.8634C12.547 22.7405 14.1571 23.4576 14.5286 22.5805L14.8786 21.3284H18.0826C18.0826 21.3284 17.9749 21.378 18.3949 22.5309C18.7396 23.4632 20.4035 22.8177 20.0589 21.8855C19.5688 20.5561 17.8672 15.7679 17.5549 15.0894C17.4095 14.775 16.898 14.5488 16.4025 14.5488C15.9933 14.5488 15.5894 14.7033 15.4225 15.0894Z" fill="#E7E9EE"/>
<mask id="mask1_3505_18226" style="mask-type:luminance" maskUnits="userSpaceOnUse" x="12" y="14" width="9" height="9">
<path d="M16.5156 16.5512L17.4903 19.679H15.4602L16.5156 16.5512ZM15.4225 15.0894C14.9917 16.0603 13.4355 20.6498 12.9185 21.8634C12.547 22.7405 14.1571 23.4576 14.5286 22.5805L14.8786 21.3284H18.0826C18.0826 21.3284 17.9749 21.378 18.3949 22.5309C18.7396 23.4632 20.4035 22.8177 20.0589 21.8855C19.5688 20.5561 17.8672 15.7679 17.5549 15.0894C17.4095 14.775 16.898 14.5488 16.4025 14.5488C15.9933 14.5488 15.5894 14.7033 15.4225 15.0894Z" fill="white"/>
</mask>
<g mask="url(#mask1_3505_18226)">
<path d="M20.4034 14.5488H12.5469V23.4576H20.4034V14.5488Z" fill="#E7E9EE"/>
</g>
<path d="M20.6738 15.3756C20.6738 16.9367 20.6846 21.9621 20.6846 21.9621C20.6846 21.9621 20.5446 22.9605 21.3792 22.9605C22.2139 22.9605 24.0717 22.9495 24.8902 22.9495C25.7087 22.9495 25.7087 21.1567 24.8902 21.1567C24.0717 21.1567 22.5693 21.1457 22.5693 21.1457C22.5693 21.1457 22.5747 16.4954 22.5693 15.3701C22.5693 14.824 22.0954 14.5537 21.6216 14.5537C21.1477 14.5537 20.6738 14.8295 20.6738 15.3756Z" fill="#E7E9EE"/>
<mask id="mask2_3505_18226" style="mask-type:luminance" maskUnits="userSpaceOnUse" x="20" y="14" width="6" height="9">
<path d="M20.6738 15.3756C20.6738 16.9367 20.6846 21.9621 20.6846 21.9621C20.6846 21.9621 20.5446 22.9605 21.3792 22.9605C22.2139 22.9605 24.0717 22.9495 24.8902 22.9495C25.7087 22.9495 25.7087 21.1567 24.8902 21.1567C24.0717 21.1567 22.5693 21.1457 22.5693 21.1457C22.5693 21.1457 22.5747 16.4954 22.5693 15.3701C22.5693 14.824 22.0954 14.5537 21.6216 14.5537C21.1477 14.5537 20.6738 14.8295 20.6738 15.3756Z" fill="white"/>
</mask>
<g mask="url(#mask2_3505_18226)">
<path d="M25.7144 14.5537H20.5449V22.9605H25.7144V14.5537Z" fill="#E7E9EE"/>
</g>
<path d="M25.9336 15.1277C25.9498 15.8118 25.9121 21.9955 25.9121 22.4534C25.9121 23.176 27.7107 23.176 27.7107 22.4534C27.7107 21.6149 27.7107 20.0207 27.7107 20.0207L28.2384 19.5849L30.5431 22.8119C31.0116 23.4408 32.4763 22.3044 32.0132 21.6756L29.563 18.3713C29.563 18.3713 31.227 16.5289 31.8839 15.8614C32.2662 15.4698 31.0816 14.2507 30.6992 14.6423C30.3277 15.0174 27.7214 17.6873 27.7214 17.6873C27.7214 17.6873 27.743 16.0104 27.7214 15.0836C27.7107 14.7306 27.2906 14.5596 26.8598 14.5596C26.3967 14.5596 25.9283 14.7526 25.9336 15.1333" fill="#E7E9EE"/>
<mask id="mask3_3505_18226" style="mask-type:luminance" maskUnits="userSpaceOnUse" x="25" y="14" width="8" height="9">
<path d="M25.9336 15.1277C25.9498 15.8118 25.9121 21.9955 25.9121 22.4534C25.9121 23.176 27.7107 23.176 27.7107 22.4534C27.7107 21.6149 27.7107 20.0207 27.7107 20.0207L28.2384 19.5849L30.5431 22.8119C31.0116 23.4408 32.4763 22.3044 32.0132 21.6756L29.563 18.3713C29.563 18.3713 31.227 16.5289 31.8839 15.8614C32.2662 15.4698 31.0816 14.2507 30.6992 14.6423C30.3277 15.0174 27.7214 17.6873 27.7214 17.6873C27.7214 17.6873 27.743 16.0104 27.7214 15.0836C27.7107 14.7306 27.2906 14.5596 26.8598 14.5596C26.3967 14.5596 25.9283 14.7526 25.9336 15.1333" fill="white"/>
</mask>
<g mask="url(#mask3_3505_18226)">
<path d="M32.4763 14.2451H25.9121V23.4408H32.4763V14.2451Z" fill="#E7E9EE"/>
</g>
</g>
</g>
<defs>
<clipPath id="clip0_3505_18226">
<rect width="40" height="40" fill="white"/>
</clipPath>
<clipPath id="clip1_3505_18226">
<rect width="34" height="32" fill="white" transform="translate(3 5)"/>
</clipPath>
</defs>
</svg>
