<svg width="36" height="36" viewBox="0 0 36 36" fill="none" xmlns="http://www.w3.org/2000/svg">
<path d="M10 12C10 10.3431 11.3431 9 13 9H23C24.6569 9 26 10.3431 26 12V23.6896C26 24.4556 25.707 25.1926 25.181 25.7495L24.727 26.2302C24.3324 26.6481 23.6676 26.6481 23.273 26.2302L22.727 25.6521C22.3324 25.2343 21.6676 25.2343 21.273 25.6521L20.727 26.2302C20.3324 26.6481 19.6676 26.6481 19.273 26.2302L18.727 25.6521C18.3324 25.2343 17.6676 25.2343 17.273 25.6521L16.727 26.2302C16.3324 26.6481 15.6676 26.6481 15.273 26.2302L14.727 25.6521C14.3324 25.2343 13.6676 25.2343 13.273 25.6521L12.727 26.2302C12.3324 26.6481 11.6676 26.6481 11.273 26.2302L10.819 25.7495C10.293 25.1926 10 24.4556 10 23.6896V12Z" fill="#71A6FF"/>
<rect width="1.67119" height="7.0691" rx="0.835594" transform="matrix(0.898597 -0.438774 0.324169 0.945999 17.1484 13.7334)" fill="white"/>
<rect width="1.67119" height="7.0691" rx="0.835594" transform="matrix(0.898597 -0.438774 0.324169 0.945999 13.7422 13.7334)" fill="white"/>
<rect width="1.67119" height="7.0691" rx="0.835594" transform="matrix(-0.898597 -0.438774 -0.324169 0.945999 19.2383 13.7334)" fill="white"/>
<rect width="1.67119" height="7.0691" rx="0.835594" transform="matrix(-0.898597 -0.438774 -0.324169 0.945999 22.6484 13.7334)" fill="white"/>
<rect x="13" y="15.9688" width="10.3889" height="1.48413" rx="0.742063" fill="white"/>
</svg>
