<svg width="36" height="36" viewBox="0 0 36 36" fill="none" xmlns="http://www.w3.org/2000/svg">
<g clip-path="url(#clip0_6627_25721)">
<g clip-path="url(#clip1_6627_25721)">
<path d="M25.663 25.7041C25.663 25.7041 25.6462 25.7177 25.6378 25.7245C24.2524 26.8441 22.529 27.0988 20.6764 26.4724C18.6836 25.7927 16.5966 24.1205 14.4728 21.4926C12.6271 19.2089 11.4686 17.1055 11.0362 15.2481C10.6161 13.4917 10.8379 11.98 11.6816 10.7569C12.038 10.219 12.5314 9.76476 13.1146 9.40445L14.1903 8.74328C14.6744 8.44921 15.2042 8.52077 15.5367 8.93217L18.2644 12.3074C18.6104 12.7356 18.5444 13.358 18.1246 13.6973L16.1254 15.4656C16.6012 16.5524 17.2045 17.5221 18.0663 18.5884C18.928 19.6547 19.7496 20.4481 20.7291 21.1277L22.8608 19.5577C23.2806 19.2184 23.9098 19.2928 24.2491 19.7126L26.9768 23.0878C27.3025 23.4908 27.2581 24.0541 26.8706 24.4506L25.97 25.4143C25.8745 25.5193 25.7637 25.6227 25.6546 25.7109L25.663 25.7041Z" fill="#71A6FF"/>
</g>
</g>
<defs>
<clipPath id="clip0_6627_25721">
<rect width="20" height="20" fill="white" transform="translate(8 8)"/>
</clipPath>
<clipPath id="clip1_6627_25721">
<rect width="8.72243" height="20.6078" fill="white" transform="translate(8 13.4824) rotate(-38.9441)"/>
</clipPath>
</defs>
</svg>
