<svg width="18" height="22" viewBox="0 0 18 22" fill="none" xmlns="http://www.w3.org/2000/svg">
<path d="M14.0462 8.25051C14.0462 5.24903 11.6038 2.71334 8.42967 2.55779L8.12057 2.55046C4.7971 2.5505 2.19418 5.15226 2.19418 8.25051V12.761C2.19416 13.0275 2.17209 13.2947 2.12753 13.5594L2.07552 13.8231L1.87629 14.7006H14.3648L14.1656 13.8231L14.1136 13.5616C14.0838 13.386 14.0636 13.2085 14.0535 13.0298L14.0462 12.761V8.25051ZM15.8466 12.761L15.851 12.928C15.8604 13.0951 15.8842 13.2612 15.9213 13.4246L16.2033 14.6691C16.4029 15.5489 15.7883 16.3891 14.9179 16.4907L14.7406 16.501H1.50054L1.32255 16.4907C0.452227 16.3889 -0.161728 15.5488 0.0378044 14.6691L0.320536 13.4246C0.357595 13.2613 0.380167 13.0951 0.389388 12.928L0.394515 12.761V8.25051C0.394515 4.10815 3.85362 0.750108 8.12057 0.750061L8.51756 0.759583C12.5999 0.960323 15.8466 4.23748 15.8466 8.25051V12.761Z" fill="#1B1C1D"/>
<path d="M4.34851 18.0011C4.34851 17.504 4.75162 17.1009 5.24871 17.1009C5.7458 17.1009 6.14891 17.504 6.14891 18.0011C6.14891 18.2756 6.2951 18.5927 6.6675 18.872C7.04021 19.1515 7.59633 19.351 8.24889 19.351C8.90145 19.351 9.45757 19.1515 9.83028 18.872C10.2027 18.5927 10.3489 18.2756 10.3489 18.0011C10.3489 17.504 10.752 17.1009 11.2491 17.1009C11.7462 17.1009 12.1493 17.504 12.1493 18.0011C12.1493 18.9691 11.6239 19.777 10.9107 20.312C10.1975 20.8469 9.25328 21.1514 8.24889 21.1514C7.2445 21.1514 6.30025 20.8469 5.58711 20.312C4.87384 19.777 4.34851 18.9691 4.34851 18.0011Z" fill="#1B1C1D"/>
<path d="M18.0006 3.75022C18.0006 5.82141 16.3216 7.50044 14.2504 7.50044C12.1792 7.50044 10.5002 5.82141 10.5002 3.75022C10.5002 1.67903 12.1792 0 14.2504 0C16.3216 0 18.0006 1.67903 18.0006 3.75022Z" fill="#145ED9"/>
</svg>
