<svg width="46" height="46" viewBox="0 0 46 46" fill="none" xmlns="http://www.w3.org/2000/svg">
<path d="M2 39V34C2 33.4477 2.44772 33 3 33C3.55228 33 4 33.4477 4 34V39C4 40.6569 5.34315 42 7 42H12C12.5523 42 13 42.4477 13 43C13 43.5523 12.5523 44 12 44H7C4.23858 44 2 41.7614 2 39ZM42 39V34C42 33.4477 42.4477 33 43 33C43.5523 33 44 33.4477 44 34V39C44 41.7614 41.7614 44 39 44H34C33.4477 44 33 43.5523 33 43C33 42.4477 33.4477 42 34 42H39C40.6569 42 42 40.6569 42 39ZM2 7C2 4.23858 4.23858 2 7 2H12C12.5523 2 13 2.44772 13 3C13 3.55228 12.5523 4 12 4H7C5.34315 4 4 5.34315 4 7V12C4 12.5523 3.55228 13 3 13C2.44772 13 2 12.5523 2 12V7ZM42 7C42 5.34315 40.6569 4 39 4H34C33.4477 4 33 3.55228 33 3C33 2.44772 33.4477 2 34 2H39C41.7614 2 44 4.23858 44 7V12C44 12.5523 43.5523 13 43 13C42.4477 13 42 12.5523 42 12V7Z" fill="white"/>
<mask id="path-2-inside-1_1180_15050" fill="white">
<rect x="8" y="8" width="10" height="10" rx="2"/>
</mask>
<rect x="8" y="8" width="10" height="10" rx="2" stroke="white" stroke-width="6" mask="url(#path-2-inside-1_1180_15050)"/>
<mask id="path-3-inside-2_1180_15050" fill="white">
<rect x="8" y="28" width="10" height="10" rx="2"/>
</mask>
<rect x="8" y="28" width="10" height="10" rx="2" stroke="white" stroke-width="6" mask="url(#path-3-inside-2_1180_15050)"/>
<mask id="path-4-inside-3_1180_15050" fill="white">
<rect x="28" y="8" width="10" height="10" rx="2"/>
</mask>
<rect x="28" y="8" width="10" height="10" rx="2" stroke="white" stroke-width="6" mask="url(#path-4-inside-3_1180_15050)"/>
<path d="M13 21C13.5523 21 14 21.4477 14 22V24C14 24.5523 13.5523 25 13 25H9C8.44772 25 8 24.5523 8 24V22C8 21.4477 8.44772 21 9 21H13Z" fill="white"/>
<path d="M24 8C24.5523 8 25 8.44772 25 9V11C25 11.5523 24.5523 12 24 12H22C21.4477 12 21 11.5523 21 11V9C21 8.44772 21.4477 8 22 8H24Z" fill="white"/>
<path d="M32 21V25H29C28.4477 25 28 24.5523 28 24V22C28 21.4477 28.4477 21 29 21H32Z" fill="white"/>
<path d="M35 21V25H31V21H35Z" fill="white"/>
<path d="M21 36C21 35.4477 21.4477 35 22 35L24 35C24.5523 35 25 35.4477 25 36L25 37C25 37.5523 24.5523 38 24 38L22 38C21.4477 38 21 37.5523 21 37L21 36Z" fill="white"/>
<path d="M21 29C21 28.4477 21.4477 28 22 28L24 28C24.5523 28 25 28.4477 25 29L25 30C25 30.5523 24.5523 31 24 31L22 31C21.4477 31 21 30.5523 21 30L21 29Z" fill="white"/>
<path d="M32 36C32 35.4477 32.4477 35 33 35L37 35C37.5523 35 38 35.4477 38 36L38 37C38 37.5523 37.5523 38 37 38L33 38C32.4477 38 32 37.5523 32 37L32 36Z" fill="white"/>
<path d="M32 34C32 34.5523 31.5523 35 31 35L28 35L28 29C28 28.4477 28.4477 28 29 28L31 28C31.5523 28 32 28.4477 32 29L32 34Z" fill="white"/>
<path d="M37 21C37.5523 21 38 21.4477 38 22V25H34V21H37Z" fill="white"/>
<path d="M34 24L38 24L38 31C38 31.5523 37.5523 32 37 32L35 32C34.4477 32 34 31.5523 34 31L34 24Z" fill="white"/>
<path d="M21 21V25H18C17.4477 25 17 24.5523 17 24V22C17 21.4477 17.4477 21 18 21H21Z" fill="white"/>
<path d="M25 21V24C25 24.5523 24.5523 25 24 25H21V21H25Z" fill="white"/>
<path d="M28 31L28 35L26 35C25.4477 35 25 34.5523 25 34L25 32C25 31.4477 25.4477 31 26 31L28 31Z" fill="white"/>
<path d="M24 15C24.5523 15 25 15.4477 25 16V21H21V16C21 15.4477 21.4477 15 22 15H24Z" fill="white"/>
</svg>
