<svg width="36" height="36" viewBox="0 0 36 36" fill="none" xmlns="http://www.w3.org/2000/svg">
<g clip-path="url(#clip0_3075_30983)">
<circle cx="18" cy="18" r="18" fill="#F1F2F5"/>
<g clip-path="url(#clip1_3075_30983)">
<path d="M9.53906 17.252C9.53906 12.7148 13.3631 9.07812 18.0175 9.07812C22.6724 9.07812 26.4918 12.7152 26.4918 17.252C26.4918 19.1034 25.8291 20.9036 24.6592 22.3259C22.9958 24.3458 20.3638 25.5533 17.7338 25.4293L17.7291 25.4291C17.2237 25.4016 16.7311 25.3274 16.2296 25.1809C15.895 25.0857 15.6669 25.0371 15.4793 25.0441C15.467 25.0445 15.4548 25.0452 15.4427 25.0462L14.2117 25.9606C13.8934 26.1971 13.554 26.4164 13.1895 26.6011C13.1653 26.6134 13.1372 26.6279 13.1061 26.6439L13.105 26.6445C12.9702 26.7142 12.778 26.8135 12.5862 26.894C12.3668 26.9863 12.0316 27.1071 11.697 27.0826L11.6933 27.0823C11.5535 27.0713 11.2712 27.0237 11.0818 26.7666C10.8824 26.4958 10.9407 26.2074 10.9744 26.0919C11.0113 25.9656 11.0729 25.8566 11.1066 25.7987C11.1404 25.7406 11.1524 25.7216 11.1619 25.7067L11.1619 25.7067C11.1702 25.6935 11.1766 25.6835 11.1942 25.6524C11.471 25.1556 11.6977 24.681 11.839 24.1793L11.84 24.1755C11.9039 23.954 11.9528 23.7286 11.9867 23.4992C12.0276 23.2074 12.0401 23.1124 12.0232 23.0441C12.0183 23.0369 12.0004 23.0112 11.9527 22.963C11.9189 22.9288 11.8827 22.8954 11.8347 22.851L11.82 22.8375C11.7704 22.7916 11.7052 22.731 11.644 22.6655C11.4303 22.4383 11.2159 22.1922 11.0208 21.921C10.7024 21.478 10.4313 20.9998 10.2115 20.5051L10.2094 20.5005C9.76336 19.475 9.53906 18.3648 9.53906 17.252Z" fill="#CAD0DA"/>
<circle cx="18" cy="17.5" r="1" fill="#F1F2F5"/>
<circle cx="22" cy="17.5" r="1" fill="#F1F2F5"/>
<circle cx="14" cy="17.5" r="1" fill="#F1F2F5"/>
</g>
</g>
<defs>
<clipPath id="clip0_3075_30983">
<rect width="36" height="36" fill="white"/>
</clipPath>
<clipPath id="clip1_3075_30983">
<rect width="20" height="20" fill="white" transform="matrix(1 0 0 -1 8 28)"/>
</clipPath>
</defs>
</svg>
