<svg width="40" height="40" viewBox="0 0 40 40" fill="none" xmlns="http://www.w3.org/2000/svg">
<path d="M20 7C10.6088 7 3 12.7768 3 19.9085C3 24.5475 6.22553 28.6176 11.0665 30.8931C10.7111 32.1653 9.77954 35.5114 9.59107 36.2251C9.35952 37.1146 9.93031 37.0991 10.3019 36.8612C10.5927 36.675 14.9598 33.8203 16.8445 32.5894C17.8676 32.7342 18.923 32.8118 20 32.8118C29.3912 32.8118 37 27.035 37 19.9033C37 12.7716 29.3912 7 20 7Z" fill="#FBD68C"/>
<path d="M9.70064 17.5673H11.2944C11.2944 17.5673 11.3042 22.0534 11.2944 23.0983C11.2944 23.8619 12.9519 23.8719 12.9519 23.1083V17.6276C12.9519 17.6276 13.4913 17.6276 14.5457 17.6276C15.5362 17.6276 15.5362 16.0301 14.5457 16.0301C13.4276 16.0301 9.70064 16 9.70064 16C8.764 16 8.76891 17.5673 9.70064 17.5673Z" fill="#6B5757"/>
<mask id="mask0_6627_23677" style="mask-type:luminance" maskUnits="userSpaceOnUse" x="9" y="16" width="7" height="8">
<path d="M9.70064 17.5673H11.2944C11.2944 17.5673 11.3042 22.0534 11.2944 23.0983C11.2944 23.8619 12.9519 23.8719 12.9519 23.1083V17.6276C12.9519 17.6276 13.4913 17.6276 14.5457 17.6276C15.5362 17.6276 15.5362 16.0301 14.5457 16.0301C13.4276 16.0301 9.70064 16 9.70064 16C8.764 16 8.76891 17.5673 9.70064 17.5673Z" fill="white"/>
</mask>
<g mask="url(#mask0_6627_23677)">
<path d="M15.53 16.0059H8.75781V23.8727H15.53V16.0059Z" fill="#6B5757"/>
</g>
<path d="M17.3261 17.8597L18.2137 20.708H16.3649L17.3261 17.8597ZM16.3306 16.5284C15.9383 17.4126 14.5211 21.5922 14.0503 22.6974C13.712 23.4961 15.1782 24.1492 15.5166 23.3504L15.8353 22.2101H18.7531C18.7531 22.2101 18.6551 22.2553 19.0376 23.3052C19.3514 24.1542 20.8667 23.5664 20.5528 22.7175C20.1066 21.5068 18.557 17.1463 18.2726 16.5284C18.1401 16.2421 17.6743 16.0361 17.2231 16.0361C16.8504 16.0361 16.4826 16.1768 16.3306 16.5284Z" fill="#6B5757"/>
<mask id="mask1_6627_23677" style="mask-type:luminance" maskUnits="userSpaceOnUse" x="14" y="16" width="7" height="8">
<path d="M17.3261 17.8597L18.2137 20.708H16.3649L17.3261 17.8597ZM16.3306 16.5284C15.9383 17.4126 14.5211 21.5922 14.0503 22.6974C13.712 23.4961 15.1782 24.1492 15.5166 23.3504L15.8353 22.2101H18.7531C18.7531 22.2101 18.6551 22.2553 19.0376 23.3052C19.3514 24.1542 20.8667 23.5664 20.5528 22.7175C20.1066 21.5068 18.557 17.1463 18.2726 16.5284C18.1401 16.2421 17.6743 16.0361 17.2231 16.0361C16.8504 16.0361 16.4826 16.1768 16.3306 16.5284Z" fill="white"/>
</mask>
<g mask="url(#mask1_6627_23677)">
<path d="M20.8657 16.0361H13.7109V24.1492H20.8657V16.0361Z" fill="#6B5757"/>
</g>
<path d="M21.1133 16.7885C21.1133 18.2102 21.1231 22.7867 21.1231 22.7867C21.1231 22.7867 20.9956 23.6959 21.7557 23.6959C22.5158 23.6959 24.2076 23.6859 24.953 23.6859C25.6984 23.6859 25.6984 22.0532 24.953 22.0532C24.2076 22.0532 22.8394 22.0432 22.8394 22.0432C22.8394 22.0432 22.8443 17.8083 22.8394 16.7835C22.8394 16.2862 22.4079 16.04 21.9764 16.04C21.5448 16.04 21.1133 16.2912 21.1133 16.7885Z" fill="#6B5757"/>
<mask id="mask2_6627_23677" style="mask-type:luminance" maskUnits="userSpaceOnUse" x="21" y="16" width="5" height="8">
<path d="M21.1133 16.7885C21.1133 18.2102 21.1231 22.7867 21.1231 22.7867C21.1231 22.7867 20.9956 23.6959 21.7557 23.6959C22.5158 23.6959 24.2076 23.6859 24.953 23.6859C25.6984 23.6859 25.6984 22.0532 24.953 22.0532C24.2076 22.0532 22.8394 22.0432 22.8394 22.0432C22.8394 22.0432 22.8443 17.8083 22.8394 16.7835C22.8394 16.2862 22.4079 16.04 21.9764 16.04C21.5448 16.04 21.1133 16.2912 21.1133 16.7885Z" fill="white"/>
</mask>
<g mask="url(#mask2_6627_23677)">
<path d="M25.7038 16.04H20.9961V23.6959H25.7038V16.04Z" fill="#6B5757"/>
</g>
<path d="M25.9024 16.5633C25.9171 17.1862 25.8828 22.8176 25.8828 23.2346C25.8828 23.8927 27.5207 23.8927 27.5207 23.2346C27.5207 22.471 27.5207 21.0192 27.5207 21.0192L28.0013 20.6224L30.1001 23.5611C30.5268 24.1338 31.8606 23.099 31.4389 22.5263L29.2076 19.5172C29.2076 19.5172 30.7229 17.8393 31.3212 17.2315C31.6694 16.8748 30.5905 15.7646 30.2423 16.1213C29.904 16.4629 27.5305 18.8943 27.5305 18.8943C27.5305 18.8943 27.5501 17.3671 27.5305 16.5231C27.5207 16.2016 27.1382 16.0459 26.7459 16.0459C26.3242 16.0459 25.8975 16.2217 25.9024 16.5683" fill="#6B5757"/>
<mask id="mask3_6627_23677" style="mask-type:luminance" maskUnits="userSpaceOnUse" x="25" y="16" width="7" height="8">
<path d="M25.9024 16.5633C25.9171 17.1862 25.8828 22.8176 25.8828 23.2346C25.8828 23.8927 27.5207 23.8927 27.5207 23.2346C27.5207 22.471 27.5207 21.0192 27.5207 21.0192L28.0013 20.6224L30.1001 23.5611C30.5268 24.1338 31.8606 23.099 31.4389 22.5263L29.2076 19.5172C29.2076 19.5172 30.7229 17.8393 31.3212 17.2315C31.6694 16.8748 30.5905 15.7646 30.2423 16.1213C29.904 16.4629 27.5305 18.8943 27.5305 18.8943C27.5305 18.8943 27.5501 17.3671 27.5305 16.5231C27.5207 16.2016 27.1382 16.0459 26.7459 16.0459C26.3242 16.0459 25.8975 16.2217 25.9024 16.5683" fill="white"/>
</mask>
<g mask="url(#mask3_6627_23677)">
<path d="M31.8606 15.7588H25.8828V24.1331H31.8606V15.7588Z" fill="#6B5757"/>
</g>
</svg>
