<svg width="36" height="36" viewBox="0 0 36 36" fill="none" xmlns="http://www.w3.org/2000/svg">
<g clip-path="url(#clip0_3075_31022)">
<path d="M15.5406 14.9287H17.805V17.6838H18.6937L22.373 13.5068C21.3421 12.7365 20.0837 12.2773 18.7222 12.2773H12V28.9968L15.5406 25.3455V14.925V14.9287Z" fill="#71A6FF"/>
<path d="M23.9427 22.4391C24.6075 21.4023 24.9985 20.1543 24.9985 18.8138C24.9985 17.4807 24.6146 16.2402 23.957 15.207L21.2375 18.2917C20.9567 18.6102 20.9567 19.1027 21.2411 19.4174L23.9427 22.4391Z" fill="#71A6FF"/>
<path d="M18.7044 20.0469H17.8086V25.3497H18.7257C20.0837 25.3497 21.335 24.8979 22.3623 24.1351L18.7044 20.0469Z" fill="#71A6FF"/>
<path d="M13.2159 12.3332H16.7139L19.8883 12.6035L20.2083 12.6998C20.2083 12.6998 20.2225 12.3332 20.2296 12.3332C20.418 11.7074 20.7913 10.4039 20.9263 9.50407C20.8908 9.51518 20.8552 9.51888 20.8197 9.51888C20.7237 9.51888 20.6348 9.48926 20.5673 9.43371C20.3327 9.67441 19.9239 9.97066 19.3018 10.0151C19.156 10.0262 18.9961 10.0225 18.8254 10.0003C18.1536 9.91511 17.6915 9.55221 17.3857 9.09303C17.0267 8.55238 16.881 7.87842 16.8667 7.37109C16.8205 7.38591 16.7708 7.39702 16.721 7.39702C16.6712 7.39702 16.6179 7.38591 16.5752 7.37109C16.561 7.87842 16.4188 8.55238 16.0562 9.09303C15.7505 9.55221 15.2884 9.91511 14.6165 10.0003C14.4459 10.0225 14.2859 10.0262 14.1402 10.0151C13.5181 9.97066 13.1093 9.67811 12.8747 9.43371C12.8071 9.48555 12.7183 9.51888 12.6223 9.51888C12.5867 9.51888 12.5476 9.51518 12.5156 9.50407C12.6507 10.4039 13.024 12.074 13.2124 12.6998C13.2195 12.6998 13.2266 12.3295 13.2337 12.3295L13.2159 12.3332Z" fill="#71A6FF"/>
<path d="M12.9539 9.33576C12.9539 9.53202 12.7974 9.69496 12.6019 9.69496C12.4064 9.69496 12.25 9.53573 12.25 9.33576C12.25 9.13579 12.4064 8.97656 12.6019 8.97656C12.7974 8.97656 12.9539 9.13579 12.9539 9.33576Z" fill="#71A6FF"/>
<path d="M17.1287 7.42215C17.1287 7.65545 16.9439 7.8443 16.7128 7.8443C16.4817 7.8443 16.2969 7.65545 16.2969 7.42215C16.2969 7.18886 16.4817 7 16.7128 7C16.9439 7 17.1287 7.18886 17.1287 7.42215Z" fill="#71A6FF"/>
<path d="M21.1101 9.33576C21.1101 9.53202 20.9537 9.69496 20.7582 9.69496C20.5627 9.69496 20.4062 9.53573 20.4062 9.33576C20.4062 9.13579 20.5627 8.97656 20.7582 8.97656C20.9537 8.97656 21.1101 9.13579 21.1101 9.33576Z" fill="#71A6FF"/>
</g>
<defs>
<clipPath id="clip0_3075_31022">
<rect width="13" height="22" fill="white" transform="translate(12 7)"/>
</clipPath>
</defs>
</svg>
