<svg width="21" height="21" viewBox="0 0 21 21" fill="none" xmlns="http://www.w3.org/2000/svg">
<path d="M12.9276 1.75235C11.7043 -0.584112 8.31893 -0.584124 7.09569 1.75235L6.98069 1.99407L6.83347 2.33686L6.48555 2.19916L6.23284 2.1098C3.71601 1.32302 1.32301 3.716 2.1098 6.23285L2.19916 6.48555L2.33759 6.83273L1.99407 6.98069L1.75235 7.09569C-0.584126 8.31893 -0.584116 11.7043 1.75235 12.9276L1.99407 13.0426L2.33759 13.1898L2.19916 13.5377L2.1098 13.7904C1.29675 16.3913 3.87967 18.86 6.48555 17.8241L6.83347 17.6857L6.98069 18.0292C8.12667 20.6875 11.8966 20.6875 13.0426 18.0292L13.1905 17.6857L13.5377 17.8241C16.2278 18.8935 18.8935 16.2278 17.8241 13.5377L17.6864 13.1898L18.0292 13.0426C20.6875 11.8966 20.6875 8.12666 18.0292 6.98069L17.6864 6.83273L17.8241 6.48555C18.86 3.87967 16.3913 1.29675 13.7904 2.1098L13.5377 2.19916L13.1905 2.33686L13.0426 1.99407L12.9276 1.75235ZM8.63387 2.70676C9.15476 1.49843 10.8685 1.49843 11.3894 2.70676L11.6524 3.31763L11.719 3.45314C12.0565 4.06164 12.7729 4.35818 13.4418 4.16656L13.5846 4.11822L14.2028 3.87211C15.4255 3.38602 16.6372 4.59772 16.1512 5.82047L15.905 6.43867C15.6052 7.193 15.9602 8.04956 16.7056 8.37091L17.3165 8.63387C18.5248 9.15476 18.5248 10.8685 17.3165 11.3894L16.7056 11.6531C15.9602 11.9744 15.6052 12.8303 15.905 13.5846L16.1512 14.2028C16.622 15.3873 15.5 16.5616 14.3178 16.1922L14.2028 16.1512L13.5846 15.9051C12.8303 15.6052 11.9744 15.9602 11.6531 16.7056L11.3894 17.3165C10.8848 18.4871 9.26117 18.5238 8.6866 17.4264L8.63387 17.3165L8.37018 16.7056C8.04883 15.9602 7.193 15.6052 6.43867 15.9051L5.82047 16.1512C4.63602 16.622 3.46163 15.5 3.83109 14.3178L3.87211 14.2028L4.11822 13.5846C4.41809 12.8303 4.06307 11.9744 3.31763 11.6531L2.70676 11.3894C1.53619 10.8848 1.49949 9.26117 2.59689 8.6866L2.70676 8.63387L3.31763 8.37091C4.06307 8.04956 4.41809 7.193 4.11822 6.43867L3.87211 5.82047C3.38602 4.59772 4.59772 3.38602 5.82047 3.87211L6.43867 4.11822L6.5815 4.16656C7.25041 4.35818 7.96678 4.06164 8.30426 3.45314L8.37018 3.31763L8.63387 2.70676Z" fill="black"/>
<path d="M12.7115 10.0116C12.7115 8.52036 11.5029 7.31175 10.0117 7.31175C8.52039 7.31175 7.31178 8.52036 7.31178 10.0116C7.31178 11.5029 8.52039 12.7115 10.0117 12.7115V14.5119C7.52622 14.5119 5.51138 12.497 5.51138 10.0116C5.51138 7.52619 7.52622 5.51135 10.0117 5.51135C12.4971 5.51135 14.5119 7.52619 14.5119 10.0116C14.5119 12.497 12.4971 14.5119 10.0117 14.5119V12.7115C11.5029 12.7115 12.7115 11.5029 12.7115 10.0116Z" fill="black"/>
</svg>
