<svg width="36" height="36" viewBox="0 0 36 36" fill="none" xmlns="http://www.w3.org/2000/svg">
<path d="M26.1474 14.9008C26.1474 10.899 22.839 7.5183 18.5393 7.31091L18.1206 7.30115C13.6187 7.3012 10.0928 10.77 10.0928 14.9008V20.9144C10.0928 21.2697 10.0629 21.6259 10.0025 21.9789L9.93209 22.3304L9.66221 23.5004H26.579L26.3092 22.3304L26.2387 21.9818C26.1984 21.7477 26.171 21.511 26.1574 21.2728L26.1474 20.9144V14.9008ZM28.5862 20.9144L28.5922 21.1371C28.605 21.3599 28.6372 21.5813 28.6874 21.7992L29.0694 23.4584C29.3397 24.6313 28.5072 25.7515 27.3281 25.8871L27.088 25.9008H9.15322L8.91211 25.8871C7.73319 25.7513 6.90153 24.6312 7.17181 23.4584L7.5548 21.7992C7.605 21.5814 7.63557 21.3598 7.64807 21.1371L7.65501 20.9144V14.9008C7.65501 9.37795 12.3407 4.90082 18.1206 4.90076L18.6584 4.91345C24.1883 5.18109 28.5862 9.55037 28.5862 14.9008V20.9144Z" fill="#1B1C1D"/>
<path d="M13.1206 28.012C13.1206 27.3984 13.689 26.9008 14.39 26.9008C15.0909 26.9008 15.6594 27.3984 15.6594 28.012C15.6594 28.3508 15.8655 28.7422 16.3907 29.087C16.9162 29.4321 17.7004 29.6783 18.6206 29.6783C19.5408 29.6783 20.325 29.4321 20.8506 29.087C21.3757 28.7422 21.5818 28.3508 21.5818 28.012C21.5818 27.3984 22.1503 26.9008 22.8512 26.9008C23.5522 26.9008 24.1206 27.3984 24.1206 28.012C24.1206 29.2069 23.3798 30.2041 22.374 30.8646C21.3684 31.5248 20.0369 31.9008 18.6206 31.9008C17.2043 31.9008 15.8728 31.5248 14.8672 30.8646C13.8614 30.2041 13.1206 29.2069 13.1206 28.012Z" fill="#1B1C1D"/>
</svg>
