<svg width="26" height="26" viewBox="0 0 26 26" fill="none" xmlns="http://www.w3.org/2000/svg">
<path d="M20.2641 10.6719C20.4454 10.1503 21.015 9.87454 21.5366 10.0557C22.0582 10.2369 22.334 10.8065 22.1528 11.3281C21.909 12.0302 21.528 12.6627 21.0278 13.2207L22.0044 14.4512L22.0649 14.5352C22.3415 14.966 22.2807 15.5726 21.9106 15.9346C21.5406 16.2963 20.992 16.2857 20.6421 15.9268L20.5747 15.8506L19.4888 14.4824C18.6152 15.0132 17.572 15.414 16.3882 15.6699L16.7436 16.8525C16.9023 17.3814 16.6111 17.9655 16.0932 18.1572C15.5753 18.3489 15.0265 18.0758 14.8677 17.5469L14.3891 15.9521C13.9728 15.9829 13.5441 16 13.104 16C12.648 16 12.2044 15.9812 11.7739 15.9482L11.2954 17.5469C11.1366 18.0758 10.5877 18.3489 10.0698 18.1572C9.55193 17.9655 9.26076 17.3815 9.41942 16.8525L9.77684 15.6602C8.73627 15.4315 7.80506 15.0908 7.0034 14.6475L6.05028 15.8506L5.98289 15.9268C5.63292 16.2858 5.08341 16.2966 4.71336 15.9346C4.34332 15.5726 4.28347 14.966 4.56004 14.5352L4.62059 14.4512L5.40477 13.4609C4.86179 12.9171 4.44086 12.294 4.1577 11.5996L4.05614 11.3281L4.02684 11.2295C3.91002 10.7365 4.18353 10.2256 4.67235 10.0557C5.1615 9.88578 5.69294 10.1175 5.90672 10.5771L5.94481 10.6719L6.00633 10.834C6.69105 12.5066 8.93845 13.9999 13.104 14C17.4039 14 19.6608 12.4089 20.2641 10.6719Z" fill="#C7CED9"/>
</svg>
