<svg width="24" height="24" viewBox="0 0 24 24" fill="none" xmlns="http://www.w3.org/2000/svg">
<g clip-path="url(#clip0_598_4202)">
<path d="M12 23.5C18.3513 23.5 23.5 18.3513 23.5 12C23.5 5.64873 18.3513 0.5 12 0.5C5.64873 0.5 0.5 5.64873 0.5 12C0.5 18.3513 5.64873 23.5 12 23.5Z" fill="#145ED9"/>
<path d="M18.2726 11.4772H17.6348L18.2412 8.61262C18.3876 7.91217 17.9066 7.41035 17.3212 7.31626C16.6939 7.22217 16.0248 7.44171 15.8889 8.15262L15.4394 10.4944C15.2721 11.3517 13.9966 11.3726 13.8085 10.5258L13.3589 8.57081C13.2021 7.8599 12.5121 7.68217 12.0626 7.68217C11.613 7.68217 10.923 7.8599 10.7662 8.57081L10.2748 10.714C10.0762 11.5608 8.82164 11.5399 8.64391 10.7035L8.11073 8.16308C7.96437 7.45217 7.30573 7.23262 6.67846 7.32671C6.093 7.42081 5.60164 7.92262 5.75846 8.62308L6.40664 11.4876H5.7271C5.1521 11.4876 4.68164 11.9581 4.68164 12.5331C4.68164 13.1081 5.1521 13.5785 5.7271 13.5785H6.8771L7.53573 16.5058C7.703 17.2376 8.38255 17.7604 9.16664 17.7604H9.18755C9.96119 17.7604 10.6407 17.2481 10.808 16.5267L11.2576 14.6763C11.4562 13.8504 12.6898 13.8504 12.8885 14.6763L13.338 16.5267C13.5157 17.2481 14.1848 17.7604 14.9585 17.7604C15.7321 17.7604 16.4326 17.2272 16.5894 16.4849L17.2062 13.5785H18.283C18.858 13.5785 19.3285 13.1081 19.3285 12.5331C19.3285 11.9581 18.858 11.4876 18.283 11.4876L18.2726 11.4772Z" fill="white"/>
</g>
<defs>
<clipPath id="clip0_598_4202">
<rect width="23" height="23" fill="white" transform="translate(0.5 0.5)"/>
</clipPath>
</defs>
</svg>
