<svg width="40" height="40" viewBox="0 0 40 40" fill="none" xmlns="http://www.w3.org/2000/svg">
<path d="M38 29.8232C38 30.9278 37.1046 31.8232 36 31.8232H4.44336C3.33885 31.8232 2.44336 30.9278 2.44336 29.8232V17.9512H38V29.8232ZM7.65039 25.9727C7.01714 25.9728 6.50404 26.4859 6.50391 27.1191C6.50391 27.7525 7.01705 28.2665 7.65039 28.2666H14.8252C15.4586 28.2666 15.9727 27.7526 15.9727 27.1191C15.9725 26.4858 15.4586 25.9727 14.8252 25.9727H7.65039ZM7.65039 21.3848C7.01705 21.3849 6.50391 21.8989 6.50391 22.5322C6.50393 23.1656 7.01707 23.6786 7.65039 23.6787H21.5889C22.2222 23.6786 22.7353 23.1656 22.7354 22.5322C22.7354 21.8989 22.2222 21.3849 21.5889 21.3848H7.65039ZM36 7.62207C37.1046 7.62207 38 8.5175 38 9.62207V13.3271H2.44336V9.62207C2.44336 8.51755 3.33885 7.62214 4.44336 7.62207H36Z" fill="#AFB8C5"/>
</svg>
