<svg width="24" height="22" viewBox="0 0 24 22" fill="none" xmlns="http://www.w3.org/2000/svg">
<g clip-path="url(#clip0_606_5204)">
<path d="M21.79 6.00994L14.04 0.639941C12.81 -0.210059 11.19 -0.210059 9.97 0.639941L2.21 6.00994C0.84 6.95994 0 8.63994 0 10.4499V19.0199C0 20.6699 1.19 22.0099 2.66 22.0099H7.11C8.15 22.0099 9 21.1699 9 20.1199V16.4299C9 15.0899 10.09 13.9999 11.42 13.9999H12.57C13.91 13.9999 14.99 15.0899 14.99 16.4299V20.1199C14.99 21.1599 15.83 22.0099 16.88 22.0099H21.33C22.8 22.0099 23.99 20.6699 23.99 19.0199V10.4499C23.99 8.63994 23.15 6.95994 21.78 6.00994H21.79Z" fill="#145ED9"/>
</g>
<defs>
<clipPath id="clip0_606_5204">
<rect width="24" height="22" fill="white"/>
</clipPath>
</defs>
</svg>
