<svg width="21" height="20" viewBox="0 0 21 20" fill="none" xmlns="http://www.w3.org/2000/svg">
<path d="M18.0011 18.0758V19.8762H3.00016V18.0758H18.0011ZM19.2008 16.876V4.12524C19.2008 3.46246 18.6638 2.92546 18.0011 2.92546H3.00016C2.33738 2.92546 1.80038 3.46246 1.80038 4.12524V16.876C1.80038 17.5388 2.33738 18.0758 3.00016 18.0758V19.8762L2.84561 19.8725C1.31166 19.7947 0.0814786 18.5645 0.00364707 17.0305L-1.52588e-05 16.876V4.12524C-1.50013e-05 2.52012 1.26048 1.20915 2.84561 1.12872L3.00016 1.12506H18.0011L18.1556 1.12872C19.7407 1.20915 21.0012 2.52012 21.0012 4.12524V16.876L20.9976 17.0305C20.9197 18.5645 19.6896 19.7947 18.1556 19.8725L18.0011 19.8762V18.0758C18.6638 18.0758 19.2008 17.5388 19.2008 16.876Z" fill="#1B1C1D"/>
<path d="M2.62514 1.12507C2.62514 0.50371 3.12885 0 3.7502 0C4.37156 0 4.87527 0.50371 4.87527 1.12507V3.3752C4.87527 3.99656 4.37156 4.50027 3.7502 4.50027C3.12885 4.50027 2.62514 3.99656 2.62514 3.3752V1.12507Z" fill="#1B1C1D"/>
<path d="M7.12543 1.12507C7.12543 0.50371 7.62914 0 8.25049 0C8.87185 0 9.37556 0.50371 9.37556 1.12507V3.3752C9.37556 3.99656 8.87185 4.50027 8.25049 4.50027C7.62914 4.50027 7.12543 3.99656 7.12543 3.3752V1.12507Z" fill="#1B1C1D"/>
<path d="M11.6257 1.12507C11.6257 0.50371 12.1294 0 12.7508 0C13.3721 0 13.8758 0.50371 13.8758 1.12507V3.3752C13.8758 3.99656 13.3721 4.50027 12.7508 4.50027C12.1294 4.50027 11.6257 3.99656 11.6257 3.3752V1.12507Z" fill="#1B1C1D"/>
<path d="M16.126 1.12507C16.126 0.50371 16.6297 0 17.251 0C17.8724 0 18.3761 0.50371 18.3761 1.12507V3.3752C18.3761 3.99656 17.8724 4.50027 17.251 4.50027C16.6297 4.50027 16.126 3.99656 16.126 3.3752V1.12507Z" fill="#1B1C1D"/>
<path d="M19.2509 6.07507V7.87547H1.75008V6.07507H19.2509Z" fill="#1B1C1D"/>
<path d="M9.66936 11.9032H9.99188C11.3645 11.9032 12.2645 12.5857 12.2645 14.0108C12.2645 15.6009 11.282 16.276 9.96188 16.276C9.19683 16.276 8.45429 16.0209 8.10177 15.6084C7.86925 15.3384 7.88425 14.8959 8.13927 14.6709C8.34928 14.4834 8.6643 14.4834 8.85931 14.5734C9.02432 14.6484 9.12933 14.7234 9.24183 14.7834C9.36184 14.8434 9.54935 14.9109 9.87937 14.9109C10.4194 14.9109 10.7944 14.6184 10.7944 14.0108C10.7944 13.4558 10.4569 13.1708 9.75936 13.1708H9.15183C8.26678 13.1708 8.00426 12.8933 8.04926 12.0457L8.11677 10.7031C8.16177 9.85558 8.32678 9.57806 9.21183 9.57806H11.4845C11.912 9.57806 12.077 9.93058 12.077 10.2306C12.077 10.5306 11.9195 10.8606 11.4845 10.8606H9.70686C9.57185 10.8606 9.52685 10.8756 9.51935 11.0181L9.48935 11.7457C9.48185 11.8882 9.53435 11.9032 9.66936 11.9032Z" fill="black"/>
</svg>
