<svg width="8" height="8" viewBox="0 0 8 8" fill="none" xmlns="http://www.w3.org/2000/svg">
<path fill-rule="evenodd" clip-rule="evenodd" d="M3.99754 1C4.33976 1 4.61719 1.26863 4.61719 1.6L4.61719 6.4C4.61719 6.73137 4.33976 7 3.99754 7C3.65532 7 3.3779 6.73137 3.3779 6.4L3.3779 1.6C3.3779 1.26863 3.65532 1 3.99754 1Z" fill="#145ED9"/>
<path fill-rule="evenodd" clip-rule="evenodd" d="M1.30626 2.5178C1.47528 2.22967 1.85353 2.12877 2.1511 2.29243L6.46143 4.66316C6.759 4.82682 6.8632 5.19307 6.69418 5.48121C6.52516 5.76934 6.14691 5.87024 5.84934 5.70658L1.53901 3.33586C1.24145 3.17219 1.13724 2.80594 1.30626 2.5178Z" fill="#145ED9"/>
<path fill-rule="evenodd" clip-rule="evenodd" d="M1.31763 5.50008C1.14652 5.21311 1.24807 4.84615 1.54444 4.68047L5.83746 2.28047C6.13383 2.11478 6.5128 2.21311 6.68391 2.50008C6.85502 2.78706 6.75347 3.15401 6.4571 3.3197L2.16408 5.7197C1.86771 5.88538 1.48874 5.78706 1.31763 5.50008Z" fill="#145ED9"/>
</svg>
