<svg width="36" height="36" viewBox="0 0 36 36" fill="none" xmlns="http://www.w3.org/2000/svg">
<mask id="mask0_6627_25707" style="mask-type:luminance" maskUnits="userSpaceOnUse" x="10" y="10" width="16" height="16">
<path fill-rule="evenodd" clip-rule="evenodd" d="M10.5 10.5H25.1076V25.1077H10.5V10.5Z" fill="white" stroke="white"/>
</mask>
<g mask="url(#mask0_6627_25707)">
<path fill-rule="evenodd" clip-rule="evenodd" d="M17.8043 11.625C14.397 11.625 11.625 14.3962 11.625 17.8035C11.625 21.2108 14.397 23.9827 17.8043 23.9827C21.2108 23.9827 23.9827 21.2108 23.9827 17.8035C23.9827 14.3962 21.2108 11.625 17.8043 11.625ZM17.8043 25.1077C13.7768 25.1077 10.5 21.831 10.5 17.8035C10.5 13.776 13.7768 10.5 17.8043 10.5C21.8317 10.5 25.1077 13.776 25.1077 17.8035C25.1077 21.831 21.8317 25.1077 17.8043 25.1077Z" fill="#93A3BF"/>
<path d="M17.8043 11.625V11.125C14.1209 11.125 11.125 14.12 11.125 17.8035H11.625H12.125C12.125 14.6725 14.6731 12.125 17.8043 12.125V11.625ZM11.625 17.8035H11.125C11.125 21.4869 14.1209 24.4827 17.8043 24.4827V23.9827V23.4827C14.6731 23.4827 12.125 20.9346 12.125 17.8035H11.625ZM17.8043 23.9827V24.4827C21.4869 24.4827 24.4827 21.4869 24.4827 17.8035H23.9827H23.4827C23.4827 20.9346 20.9346 23.4827 17.8043 23.4827V23.9827ZM23.9827 17.8035H24.4827C24.4827 14.1201 21.4869 11.125 17.8043 11.125V11.625V12.125C20.9346 12.125 23.4827 14.6724 23.4827 17.8035H23.9827ZM17.8043 25.1077V24.6077C14.0529 24.6077 11 21.5549 11 17.8035H10.5H10C10 22.1071 13.5006 25.6077 17.8043 25.6077V25.1077ZM10.5 17.8035H11C11 14.0522 14.0528 11 17.8043 11V10.5V10C13.5007 10 10 13.4998 10 17.8035H10.5ZM17.8043 10.5V11C21.5556 11 24.6077 14.0521 24.6077 17.8035H25.1077H25.6077C25.6077 13.4999 22.1079 10 17.8043 10V10.5ZM25.1077 17.8035H24.6077C24.6077 21.5549 21.5555 24.6077 17.8043 24.6077V25.1077V25.6077C22.108 25.6077 25.6077 22.1071 25.6077 17.8035H25.1077Z" fill="#93A3BF"/>
</g>
<mask id="mask1_6627_25707" style="mask-type:luminance" maskUnits="userSpaceOnUse" x="21" y="21" width="6" height="6">
<path fill-rule="evenodd" clip-rule="evenodd" d="M21.9297 22.2803H25.6977V26.0413H21.9297V22.2803Z" fill="white" stroke="white"/>
</mask>
<g mask="url(#mask1_6627_25707)">
<path fill-rule="evenodd" clip-rule="evenodd" d="M25.1354 26.0413C24.9921 26.0413 24.8481 25.9866 24.7379 25.8771L22.0949 23.2416C21.8751 23.0218 21.8744 22.6656 22.0941 22.4458C22.3131 22.2246 22.6694 22.2261 22.8899 22.4443L25.5329 25.0806C25.7526 25.3003 25.7534 25.6558 25.5336 25.8756C25.4241 25.9866 25.2794 26.0413 25.1354 26.0413Z" fill="#93A3BF"/>
<path d="M25.1354 26.0413C24.9921 26.0413 24.8481 25.9866 24.7379 25.8771L22.0949 23.2416C21.8751 23.0218 21.8744 22.6656 22.0941 22.4458C22.3131 22.2246 22.6694 22.2261 22.8899 22.4443L25.5329 25.0806C25.7526 25.3003 25.7534 25.6558 25.5336 25.8756C25.4241 25.9866 25.2794 26.0413 25.1354 26.0413" stroke="#93A3BF"/>
</g>
</svg>
