<svg width="36" height="36" viewBox="0 0 36 36" fill="none" xmlns="http://www.w3.org/2000/svg">
<g clip-path="url(#clip0_6627_25745)">
<path d="M26.2145 16.5166C27.7961 15.3969 26.7604 12.9054 24.8568 13.2413C23.6251 13.4513 22.5473 12.3735 22.7573 11.1418C23.0932 9.23822 20.6017 8.20245 19.482 9.7841C18.7542 10.8059 17.2285 10.8059 16.5147 9.7841C15.3949 8.20245 12.9035 9.23822 13.2394 11.1418C13.4493 12.3735 12.3716 13.4513 11.1398 13.2413C9.23627 12.9054 8.2005 15.3969 9.78215 16.5166C10.8039 17.2444 10.8039 18.7701 9.78215 19.4839C8.2005 20.6037 9.23627 23.0951 11.1398 22.7592C12.3716 22.5493 13.4493 23.627 13.2394 24.8588C12.9035 26.7623 15.3949 27.7981 16.5147 26.2164C17.2425 25.1947 18.7682 25.1947 19.482 26.2164C20.6017 27.7981 23.0932 26.7623 22.7573 24.8588C22.5473 23.627 23.6251 22.5493 24.8568 22.7592C26.7604 23.0811 27.7961 20.6037 26.2145 19.4839C25.1927 18.7561 25.1927 17.2304 26.2145 16.5166ZM17.9983 21.1076C16.2767 21.1076 14.891 19.7219 14.891 18.0003C14.891 16.2787 16.2767 14.893 17.9983 14.893C19.7199 14.893 21.1056 16.2787 21.1056 18.0003C21.1056 19.7219 19.7199 21.1076 17.9983 21.1076Z" fill="#93A3BF"/>
</g>
<defs>
<clipPath id="clip0_6627_25745">
<rect width="18" height="18" fill="white" transform="translate(9 9)"/>
</clipPath>
</defs>
</svg>
