<svg width="36" height="36" viewBox="0 0 36 36" fill="none" xmlns="http://www.w3.org/2000/svg">
<g clip-path="url(#clip0_6627_25733)">
<path d="M9.53906 17.251C9.53906 12.7138 13.3631 9.07715 18.0175 9.07715C22.6724 9.07715 26.4918 12.7142 26.4918 17.251C26.4918 19.1024 25.8291 20.9026 24.6592 22.3249C22.9958 24.3448 20.3638 25.5523 17.7338 25.4284L17.7291 25.4281C17.2237 25.4006 16.7311 25.3264 16.2296 25.18C15.895 25.0847 15.6669 25.0361 15.4793 25.0431C15.467 25.0436 15.4548 25.0443 15.4427 25.0452L14.2117 25.9597C13.8934 26.1961 13.554 26.4155 13.1895 26.6001C13.1653 26.6124 13.1372 26.6269 13.1061 26.643L13.105 26.6435C12.9702 26.7132 12.778 26.8125 12.5862 26.8931C12.3668 26.9853 12.0316 27.1061 11.697 27.0816L11.6933 27.0813C11.5535 27.0703 11.2712 27.0227 11.0818 26.7656C10.8824 26.4948 10.9407 26.2064 10.9744 26.0909C11.0113 25.9646 11.0729 25.8557 11.1066 25.7977C11.1404 25.7396 11.1524 25.7206 11.1619 25.7057L11.1619 25.7057C11.1702 25.6925 11.1766 25.6825 11.1942 25.6514C11.471 25.1546 11.6977 24.68 11.839 24.1783L11.84 24.1745C11.9039 23.953 11.9528 23.7276 11.9867 23.4982C12.0276 23.2065 12.0401 23.1114 12.0232 23.0431C12.0183 23.0359 12.0004 23.0102 11.9527 22.962C11.9189 22.9278 11.8827 22.8944 11.8347 22.85L11.82 22.8365C11.7704 22.7906 11.7052 22.7301 11.644 22.6645C11.4303 22.4374 11.2159 22.1913 11.0208 21.92C10.7024 21.477 10.4313 20.9989 10.2115 20.5041L10.2094 20.4995C9.76336 19.4741 9.53906 18.3638 9.53906 17.251Z" fill="#93A3BF"/>
<circle cx="18" cy="17.5" r="1" fill="white"/>
<circle cx="22" cy="17.5" r="1" fill="white"/>
<circle cx="14" cy="17.5" r="1" fill="white"/>
</g>
<defs>
<clipPath id="clip0_6627_25733">
<rect width="20" height="20" fill="white" transform="matrix(1 0 0 -1 8 28)"/>
</clipPath>
</defs>
</svg>
