<svg width="24" height="24" viewBox="0 0 24 24" fill="none" xmlns="http://www.w3.org/2000/svg">
<g clip-path="url(#clip0_598_4207)">
<path d="M12 1.5C17.799 1.5 22.5 6.20101 22.5 12C22.5 17.799 17.799 22.5 12 22.5C6.20101 22.5 1.5 17.799 1.5 12C1.5 6.20101 6.20101 1.5 12 1.5Z" stroke="#D6DEEB" stroke-width="2"/>
<g clip-path="url(#clip1_598_4207)">
<path d="M17.9701 8.25994L16.3801 15.7799C16.2301 16.4899 15.5801 16.9999 14.8201 16.9999C14.0801 16.9999 13.4301 16.5099 13.2601 15.8199L12.2301 11.5099C12.1901 11.3399 11.9301 11.3399 11.8901 11.5099L10.8601 15.8199C10.6901 16.5099 10.0501 16.9999 9.31014 16.9999H9.29014C8.54014 16.9999 7.89014 16.4999 7.73014 15.7999L6.03014 8.25994C5.88014 7.58994 6.34014 7.10994 6.91014 7.01994C7.51014 6.92994 8.14014 7.13994 8.28014 7.81994L9.39014 13.1099C9.42014 13.2699 9.66014 13.2699 9.70014 13.1099L10.8301 8.19994C10.9801 7.51994 11.6401 7.34994 12.0701 7.34994C12.5001 7.34994 13.1601 7.51994 13.3101 8.19994L14.4201 13.0399C14.4601 13.1999 14.7001 13.1999 14.7301 13.0399L15.7401 7.80994C15.8701 7.12994 16.5101 6.91994 17.1101 7.00994C17.6701 7.09994 18.1301 7.57994 17.9901 8.24994L17.9701 8.25994Z" fill="#D6DEEB"/>
<path d="M6 11.54H18" stroke="#D6DEEB" stroke-width="2" stroke-miterlimit="10" stroke-linecap="round"/>
</g>
</g>
<defs>
<clipPath id="clip0_598_4207">
<rect width="23" height="23" fill="white" transform="translate(0.5 0.5)"/>
</clipPath>
<clipPath id="clip1_598_4207">
<rect width="14" height="10" fill="white" transform="translate(5 7)"/>
</clipPath>
</defs>
</svg>
