<svg width="60" height="40" viewBox="0 0 60 40" fill="none" xmlns="http://www.w3.org/2000/svg">
<path d="M8.31246 7.71582C8.40525 6.21591 9.69638 5.07522 11.1963 5.16801L38.4295 6.8527C39.9294 6.94549 41.0701 8.23662 40.9773 9.73653L39.8315 28.2591C39.7387 29.759 38.4475 30.8997 36.9476 30.8069L9.71444 29.1222C8.21453 29.0294 7.07384 27.7383 7.16662 26.2384L8.31246 7.71582Z" fill="#E6EFFC"/>
<rect x="8.17188" y="9.99023" width="33" height="5" transform="rotate(3.53991 8.17188 9.99023)" fill="#B5C1D5"/>
<path d="M14 12.721C14 11.2182 15.2182 10 16.721 10H44.0063C45.509 10 46.7273 11.2182 46.7273 12.721V31.279C46.7273 32.7818 45.509 34 44.0063 34H16.721C15.2182 34 14 32.7818 14 31.279V12.721Z" fill="#D2DBE9"/>
<path opacity="0.6" d="M40.1811 27.9998C40.1811 26.4935 38.9601 25.2725 37.4538 25.2725C35.9476 25.2725 34.7266 26.4935 34.7266 27.9998C34.7266 29.506 35.9476 30.7271 37.4538 30.7271C38.9601 30.7271 40.1811 29.506 40.1811 27.9998Z" fill="#FB8678"/>
<path opacity="0.6" d="M43.4545 27.9998C43.4545 26.4935 42.2335 25.2725 40.7273 25.2725C39.221 25.2725 38 26.4935 38 27.9998C38 29.506 39.221 30.7271 40.7273 30.7271C42.2335 30.7271 43.4545 29.506 43.4545 27.9998Z" fill="#FFECB4"/>
<g clip-path="url(#clip0_7345_22340)">
<path d="M17.2734 20.4526C17.2734 20.102 17.5576 19.8179 17.9081 19.8179H22.9858C23.3364 19.8179 23.6205 20.102 23.6205 20.4526V24.2608C23.6205 24.6114 23.3364 24.8956 22.9858 24.8956H17.9081C17.5576 24.8956 17.2734 24.6114 17.2734 24.2608V20.4526Z" fill="white"/>
<path d="M19.2571 19.8179V24.8953H19.0984V23.2291H17.2734V23.0704H19.0984V21.6428H17.2734V21.4841H19.0984V19.8179H19.2571ZM23.6207 21.4841V21.6428H21.7958V23.0704H23.6207V23.2291H21.7958V24.8953H21.6371V21.4841H23.6207Z" fill="#A8AFBB"/>
</g>
<rect x="40" y="1" width="20" height="20" rx="10" fill="#E22C17"/>
<path d="M53 9.99998L50 7M50 7L47 9.99998M50 7L50 14.4999" stroke="white" stroke-width="1.40624" stroke-linecap="round" stroke-linejoin="round"/>
<defs>
<clipPath id="clip0_7345_22340">
<rect width="6.34711" height="5.07769" fill="white" transform="translate(17.2734 19.8184)"/>
</clipPath>
</defs>
</svg>
