<svg width="36" height="36" viewBox="0 0 36 36" fill="none" xmlns="http://www.w3.org/2000/svg">
<g clip-path="url(#clip0_3075_31018)">
<path d="M9.53906 17.252C9.53906 12.7148 13.3631 9.07812 18.0175 9.07812C22.6724 9.07812 26.4918 12.7152 26.4918 17.252C26.4918 19.1034 25.8291 20.9036 24.6592 22.3259C22.9958 24.3458 20.3638 25.5533 17.7338 25.4293L17.7291 25.4291C17.2237 25.4016 16.7311 25.3274 16.2296 25.1809C15.895 25.0857 15.6669 25.0371 15.4793 25.0441C15.467 25.0445 15.4548 25.0452 15.4427 25.0462L14.2117 25.9606C13.8934 26.1971 13.554 26.4164 13.1895 26.6011C13.1653 26.6134 13.1372 26.6279 13.1061 26.6439L13.105 26.6445C12.9702 26.7142 12.778 26.8135 12.5862 26.894C12.3668 26.9863 12.0316 27.1071 11.697 27.0826L11.6933 27.0823C11.5535 27.0713 11.2712 27.0237 11.0818 26.7666C10.8824 26.4958 10.9407 26.2074 10.9744 26.0919C11.0113 25.9656 11.0729 25.8566 11.1066 25.7987C11.1404 25.7406 11.1524 25.7216 11.1619 25.7067L11.1619 25.7067C11.1702 25.6935 11.1766 25.6835 11.1942 25.6524C11.471 25.1556 11.6977 24.681 11.839 24.1793L11.84 24.1755C11.9039 23.954 11.9528 23.7286 11.9867 23.4992C12.0276 23.2074 12.0401 23.1124 12.0232 23.0441C12.0183 23.0369 12.0004 23.0112 11.9527 22.963C11.9189 22.9288 11.8827 22.8954 11.8347 22.851L11.82 22.8375C11.7704 22.7916 11.7052 22.731 11.644 22.6655C11.4303 22.4383 11.2159 22.1922 11.0208 21.921C10.7024 21.478 10.4313 20.9998 10.2115 20.5051L10.2094 20.5005C9.76336 19.475 9.53906 18.3648 9.53906 17.252Z" fill="#93A3BF"/>
<path fill-rule="evenodd" clip-rule="evenodd" d="M19.074 14.1187C18.6202 13.8004 17.9475 13.7364 17.3611 13.9104C16.5795 14.1435 16.1248 14.9963 16.1248 15.9073C16.1248 16.1877 15.8975 16.415 15.6171 16.415C15.3367 16.415 15.1094 16.1877 15.1094 15.9073C15.1094 14.7453 15.6953 13.3474 17.0713 12.9373L17.0718 12.9371C17.8815 12.6967 18.8924 12.7511 19.6571 13.2874L19.3655 13.7031L19.6563 13.2868C20.3711 13.7862 20.7959 14.6296 20.8165 15.4804L20.8166 15.482C20.8381 16.5027 20.2682 17.3248 19.3834 17.7414C19.0655 17.892 18.8276 18.033 18.6825 18.2136L18.6816 18.2147C18.5405 18.3895 18.5067 18.6416 18.5067 19.055C18.5067 19.3354 18.2794 19.5627 17.999 19.5627C17.7186 19.5627 17.4913 19.3354 17.4913 19.055C17.4913 18.6646 17.4998 18.0624 17.8913 17.5773C18.1946 17.1999 18.6246 16.9773 18.9493 16.8235L18.9505 16.8229C19.5036 16.5627 19.8134 16.0906 19.8014 15.5042C19.788 14.9591 19.5106 14.4237 19.0748 14.1193L19.074 14.1187Z" fill="white" stroke="white" stroke-width="0.4" stroke-miterlimit="10" stroke-linecap="round"/>
<path d="M17.999 20.5557C18.274 20.5558 18.4971 20.7787 18.4971 21.0537C18.497 21.3287 18.274 21.5517 17.999 21.5518C17.724 21.5518 17.5011 21.3287 17.501 21.0537C17.501 20.7786 17.7239 20.5557 17.999 20.5557Z" fill="white" stroke="white" stroke-width="0.4"/>
</g>
<defs>
<clipPath id="clip0_3075_31018">
<rect width="20" height="20" fill="white" transform="matrix(1 0 0 -1 8 28)"/>
</clipPath>
</defs>
</svg>
