<svg width="36" height="36" viewBox="0 0 36 36" fill="none" xmlns="http://www.w3.org/2000/svg">
<path d="M17.5176 7.75977C17.5858 7.76312 17.6538 7.76737 17.7215 7.7725C18.2588 7.81314 18.5133 8.42092 18.3261 8.92616C18.3214 8.9387 18.3168 8.95125 18.3123 8.96383C18.1798 9.33004 17.8187 9.57668 17.4297 9.55762L17.1211 9.55078C13.7976 9.55082 11.1943 12.1527 11.1943 15.251V19.7607C11.1943 20.0272 11.1725 20.2948 11.1279 20.5596L11.0752 20.8232C10.9731 21.2725 11.3146 21.7002 11.7753 21.7002H22.4659C22.9266 21.7002 23.2681 21.2725 23.166 20.8232L23.1133 20.5615C23.0835 20.3861 23.0638 20.2087 23.0537 20.0303L23.0459 19.7607V16.1983C23.0459 16.0869 23.1385 16 23.25 16C23.3351 16 23.4197 15.9979 23.5037 15.9939C24.18 15.9611 24.8467 16.4425 24.8467 17.1196V19.7607L24.8516 19.9277C24.861 20.0948 24.8848 20.2614 24.9219 20.4248L25.2031 21.6689C25.4027 22.5487 24.7884 23.3895 23.918 23.4912L23.7412 23.501H10.501L10.3223 23.4912C9.45214 23.3892 8.83858 22.5485 9.03809 21.6689L9.32031 20.4248C9.35737 20.2615 9.38043 20.0948 9.38965 19.9277L9.39453 19.7607V15.251C9.39453 11.1086 12.8541 7.75005 17.1211 7.75L17.5176 7.75977Z" fill="#191919"/>
<path d="M27.0004 10.7502C27.0004 12.8214 25.3214 14.5004 23.2502 14.5004C21.179 14.5004 19.5 12.8214 19.5 10.7502C19.5 8.67903 21.179 7 23.2502 7C25.3214 7 27.0004 8.67903 27.0004 10.7502Z" fill="#145ED9"/>
<path d="M13.3477 25.0008C13.3477 24.5037 13.7508 24.1006 14.2479 24.1006C14.7449 24.1006 15.1481 24.5037 15.1481 25.0008C15.1481 25.2753 15.2942 25.5924 15.6666 25.8717C16.0394 26.1512 16.5955 26.3507 17.248 26.3507C17.9006 26.3507 18.4567 26.1512 18.8294 25.8717C19.2018 25.5924 19.348 25.2753 19.348 25.0008C19.348 24.5037 19.7511 24.1006 20.2482 24.1006C20.7453 24.1006 21.1484 24.5037 21.1484 25.0008C21.1484 25.9688 20.6231 26.7766 19.9098 27.3117C19.1967 27.8466 18.2524 28.1511 17.248 28.1511C16.2436 28.1511 15.2994 27.8466 14.5863 27.3117C13.873 26.7766 13.3477 25.9688 13.3477 25.0008Z" fill="#191919"/>
</svg>
