<svg width="10" height="7" viewBox="0 0 10 7" fill="none" xmlns="http://www.w3.org/2000/svg">
<mask id="path-1-inside-1_112_4197" fill="white">
<path d="M9.81706 0.893565C10.061 1.1424 10.0609 1.54602 9.81706 1.79493L5.71354 5.9795C5.32155 6.37887 4.67777 6.37893 4.28581 5.9795L0.182294 1.79493L0.140302 1.7461C-0.0597821 1.49581 -0.0463829 1.12688 0.182294 0.893564C0.41112 0.66022 0.77372 0.646421 1.01921 0.850595L1.06706 0.893564L4.28581 4.17677C4.6778 4.57635 5.32152 4.57629 5.71354 4.17677L8.93327 0.893565C9.17738 0.644948 9.57307 0.644759 9.81706 0.893565Z"/>
</mask>
<path d="M9.81706 0.893565C10.061 1.1424 10.0609 1.54602 9.81706 1.79493L5.71354 5.9795C5.32155 6.37887 4.67777 6.37893 4.28581 5.9795L0.182294 1.79493L0.140302 1.7461C-0.0597821 1.49581 -0.0463829 1.12688 0.182294 0.893564C0.41112 0.66022 0.77372 0.646421 1.01921 0.850595L1.06706 0.893564L4.28581 4.17677C4.6778 4.57635 5.32152 4.57629 5.71354 4.17677L8.93327 0.893565C9.17738 0.644948 9.57307 0.644759 9.81706 0.893565Z" fill="#99A2B0"/>
<path d="M9.81706 0.893565L10.5311 0.193449L10.531 0.193402L9.81706 0.893565ZM9.81706 1.79493L10.531 2.49509L10.5314 2.49476L9.81706 1.79493ZM5.71354 5.9795L6.42721 6.67999L6.42753 6.67966L5.71354 5.9795ZM4.28581 5.9795L3.57182 6.67966L3.57206 6.6799L4.28581 5.9795ZM0.182294 1.79493L-0.575892 2.44697C-0.561688 2.46349 -0.546947 2.47954 -0.531694 2.49509L0.182294 1.79493ZM0.140302 1.7461L-0.640792 2.37052C-0.633322 2.37986 -0.625685 2.38907 -0.617884 2.39814L0.140302 1.7461ZM0.182294 0.893564L-0.53169 0.193401L-0.531871 0.193586L0.182294 0.893564ZM1.01921 0.850595L1.68733 0.106547C1.67793 0.0981041 1.66837 0.0898405 1.65866 0.0817602L1.01921 0.850595ZM1.06706 0.893564L1.78114 0.193501C1.76629 0.178356 1.75097 0.163686 1.73518 0.149516L1.06706 0.893564ZM4.28581 4.17677L3.57173 4.87683L3.57195 4.87705L4.28581 4.17677ZM5.71354 4.17677L6.42732 4.87714L6.42752 4.87694L5.71354 4.17677ZM8.93327 0.893565L8.21972 0.192962L8.2193 0.193393L8.93327 0.893565ZM9.81706 0.893565L9.10303 1.59368C8.96544 1.45336 8.96597 1.23472 9.10275 1.0951L9.81706 1.79493L10.5314 2.49476C11.1559 1.85733 11.1566 0.831433 10.5311 0.193449L9.81706 0.893565ZM9.81706 1.79493L9.10307 1.09477L4.99956 5.27934L5.71354 5.9795L6.42753 6.67966L10.531 2.49509L9.81706 1.79493ZM5.71354 5.9795L4.99988 5.27901L4.99956 5.2791L4.28581 5.9795L3.57206 6.6799C4.3561 7.47888 5.64332 7.47862 6.42721 6.67999L5.71354 5.9795ZM4.28581 5.9795L4.9998 5.27934L0.896281 1.09477L0.182294 1.79493L-0.531694 2.49509L3.57182 6.67966L4.28581 5.9795ZM0.182294 1.79493L0.940479 1.14289L0.898487 1.09406L0.140302 1.7461L-0.617884 2.39814L-0.575892 2.44697L0.182294 1.79493ZM0.140302 1.7461L0.921395 1.12169C1.03123 1.25909 1.02811 1.45922 0.896459 1.59354L0.182294 0.893564L-0.531871 0.193586C-1.12088 0.794532 -1.1508 1.73254 -0.640792 2.37052L0.140302 1.7461ZM0.182294 0.893564L0.896277 1.59373C0.756295 1.73647 0.529762 1.74419 0.379761 1.61943L1.01921 0.850595L1.65866 0.0817602C1.01768 -0.451347 0.0659466 -0.416031 -0.53169 0.193401L0.182294 0.893564ZM1.01921 0.850595L0.351083 1.59464L0.398934 1.63761L1.06706 0.893564L1.73518 0.149516L1.68733 0.106547L1.01921 0.850595ZM1.06706 0.893564L0.352978 1.59363L3.57173 4.87683L4.28581 4.17677L4.99989 3.4767L1.78114 0.193501L1.06706 0.893564ZM4.28581 4.17677L3.57195 4.87705C4.35604 5.67634 5.64338 5.67608 6.42732 4.87714L5.71354 4.17677L4.99977 3.4764L4.99967 3.47648L4.28581 4.17677ZM5.71354 4.17677L6.42752 4.87694L9.64725 1.59374L8.93327 0.893565L8.2193 0.193393L4.99957 3.4766L5.71354 4.17677ZM8.93327 0.893565L9.64682 1.59417C9.49941 1.7443 9.25157 1.74515 9.10308 1.59373L9.81706 0.893565L10.531 0.193402C9.89457 -0.455634 8.85534 -0.454404 8.21972 0.192962L8.93327 0.893565Z" fill="#99A2B0" mask="url(#path-1-inside-1_112_4197)"/>
</svg>
