<svg width="36" height="36" viewBox="0 0 36 36" fill="none" xmlns="http://www.w3.org/2000/svg">
<g clip-path="url(#clip0_6627_25656)">
<path d="M20.4809 15.5191C22.5924 17.6305 22.5572 21.0088 20.4809 23.0499C20.4809 23.085 20.4809 23.085 20.4809 23.085L18.1232 25.4428C16.0469 27.5191 12.6334 27.5191 10.5572 25.4428C8.48094 23.3666 8.48094 19.9531 10.5572 17.8768L11.8592 16.5748C12.2111 16.2229 12.8094 16.4692 12.8094 16.9619C12.8446 17.5601 12.9501 18.1935 13.1613 18.7918C13.2317 19.0029 13.1965 19.2493 13.0205 19.39L12.5631 19.8475C11.5777 20.8328 11.5425 22.4516 12.5279 23.437C13.5132 24.4575 15.132 24.4575 16.1173 23.437L18.5103 21.0792C19.4956 20.0938 19.4956 18.5103 18.5103 17.4897C18.3695 17.3842 18.2287 17.2786 18.1232 17.2082C17.9824 17.1026 17.8768 16.9619 17.8768 16.7507C17.8768 16.3988 18.0176 16.0117 18.2991 15.695L19.0381 14.956C19.2493 14.7801 19.5308 14.7449 19.7771 14.9208C20.0235 15.0968 20.2698 15.3079 20.4809 15.5191ZM25.4428 10.5572C27.5191 12.6334 27.5191 16.0469 25.4428 18.1232L24.1408 19.4252C23.7889 19.7771 23.1906 19.5308 23.1906 19.0381C23.1554 18.4399 23.0499 17.8065 22.8387 17.2082C22.7683 16.9971 22.8035 16.7507 22.9795 16.61L23.437 16.1525C24.4223 15.1672 24.4575 13.5484 23.4721 12.5631C22.4868 11.5425 20.868 11.5425 19.8827 12.5631L17.4897 14.9208C16.5044 15.9062 16.5044 17.4897 17.4897 18.5103C17.6305 18.6158 17.7713 18.7214 17.8768 18.7918C18.0176 18.8974 18.1232 19.0381 18.1232 19.2493C18.1232 19.6012 17.9824 19.9883 17.7009 20.305L16.9619 21.044C16.7507 21.2199 16.4692 21.2551 16.2229 21.0792C15.9765 20.9032 15.7302 20.6921 15.5191 20.4809C13.4076 18.3695 13.4428 14.9912 15.5191 12.9501C15.5191 12.915 15.5191 12.915 15.5191 12.915L17.8768 10.5572C19.9531 8.48094 23.3666 8.48094 25.4428 10.5572Z" fill="#93A3BF"/>
</g>
<defs>
<clipPath id="clip0_6627_25656">
<rect width="36" height="36" fill="white"/>
</clipPath>
</defs>
</svg>
