<svg width="262" height="153" viewBox="0 0 262 153" fill="none" xmlns="http://www.w3.org/2000/svg">
<g filter="url(#filter0_d_974_6853)">
<mask id="path-1-inside-1_974_6853" fill="white">
<path d="M70.2676 1C71.0374 -0.333333 72.9626 -0.333333 73.7324 1L79.5059 11H246C252.627 11 258 16.3726 258 23V133C258 139.627 252.627 145 246 145H16C9.37258 145 4 139.627 4 133V23C4 16.3726 9.37258 11 16 11H64.4941L70.2676 1Z"/>
</mask>
<path d="M70.2676 1C71.0374 -0.333333 72.9626 -0.333333 73.7324 1L79.5059 11H246C252.627 11 258 16.3726 258 23V133C258 139.627 252.627 145 246 145H16C9.37258 145 4 139.627 4 133V23C4 16.3726 9.37258 11 16 11H64.4941L70.2676 1Z" fill="white"/>
<path d="M70.2676 1L69.4016 0.5V0.500004L70.2676 1ZM73.7324 1L74.5984 0.500004V0.5L73.7324 1ZM79.5059 11L78.6398 11.5L78.9285 12H79.5059V11ZM64.4941 11V12H65.0715L65.3602 11.5L64.4941 11ZM70.2676 1L71.1336 1.5C71.5185 0.833333 72.4815 0.833333 72.8664 1.5L73.7324 1L74.5984 0.5C73.4437 -1.5 70.5563 -1.5 69.4016 0.5L70.2676 1ZM73.7324 1L72.8664 1.5L78.6398 11.5L79.5059 11L80.3719 10.5L74.5984 0.500004L73.7324 1ZM79.5059 11V12H246V11V10H79.5059V11ZM246 11V12C252.075 12 257 16.9249 257 23H258H259C259 15.8203 253.18 10 246 10V11ZM258 23H257V133H258H259V23H258ZM258 133H257C257 139.075 252.075 144 246 144V145V146C253.18 146 259 140.18 259 133H258ZM246 145V144H16V145V146H246V145ZM16 145V144C9.92487 144 5 139.075 5 133H4H3C3 140.18 8.8203 146 16 146V145ZM4 133H5V23H4H3V133H4ZM4 23H5C5 16.9249 9.92487 12 16 12V11V10C8.8203 10 3 15.8203 3 23H4ZM16 11V12H64.4941V11V10H16V11ZM64.4941 11L65.3602 11.5L71.1336 1.5L70.2676 1L69.4016 0.500004L63.6281 10.5L64.4941 11Z" fill="#145ED9" mask="url(#path-1-inside-1_974_6853)"/>
</g>
<path d="M29.948 27.956V32.096H21.572V27.956H29.948ZM22.868 31.004H28.64V29.06H22.868V31.004ZM20.852 34.448V33.32H30.656V34.448H26.528V36.464H25.232V34.448H20.852ZM22.868 35.588V37.628H30.14V38.756H21.572V35.588H22.868ZM34.9755 27.512H36.2955V28.832H38.6475V29.948H32.6355V28.832H34.9755V27.512ZM34.2315 33.08C34.2315 33.5 34.3995 33.872 34.6995 34.124C34.9395 34.328 35.2635 34.436 35.6475 34.436C36.0195 34.436 36.3435 34.328 36.5835 34.136C36.8955 33.884 37.0635 33.524 37.0635 33.08C37.0635 32.624 36.8955 32.252 36.5835 32.012C36.3435 31.82 36.0195 31.7 35.6475 31.7C35.2635 31.7 34.9395 31.832 34.6995 32.036C34.4115 32.288 34.2315 32.648 34.2315 33.08ZM32.9355 33.08C32.9355 32.264 33.2715 31.604 33.8475 31.16C34.3155 30.812 34.9275 30.608 35.6475 30.608C36.2835 30.608 36.8355 30.764 37.2675 31.04C37.9515 31.46 38.3595 32.192 38.3595 33.08C38.3595 33.968 37.9635 34.688 37.2795 35.108C37.0035 35.276 36.6795 35.396 36.3075 35.468V36.968H37.7595C38.7315 36.968 39.4875 36.776 39.9315 36.404V27.824H41.2395V32.264H42.9435V33.404H41.2395V38.708H39.9315V37.472C39.4875 37.88 38.5995 38.084 37.5075 38.084H32.4795V36.968H34.9995V35.468C34.6155 35.396 34.2675 35.264 33.9795 35.072C33.3435 34.64 32.9355 33.944 32.9355 33.08ZM45.6311 31.868H48.2951V28.016H49.5911V37.976H44.3351V28.016H45.6311V31.868ZM48.2951 36.848V32.996H45.6311V36.848H48.2951ZM53.0231 27.824V38.708H51.7151V27.824H53.0231ZM63.7988 31.436C63.0668 32.708 61.5308 33.908 59.1548 34.364V33.212C61.6388 32.648 63.1388 31.088 63.1388 28.712V27.956H64.4348V28.712C64.4348 31.088 65.9708 32.648 68.4428 33.212V34.364C66.0788 33.908 64.5308 32.708 63.7988 31.436ZM58.9748 38.228V37.1H63.1388V33.824H64.4348V37.1H68.6348V38.228H58.9748ZM79.5183 29.06H72.4383V30.812H79.5783V31.892H71.1423V27.956H79.5183V29.06ZM70.4223 34.208V33.092H80.2263V34.208H70.4223ZM78.2103 38.888V36.56H71.0703V35.444H79.5183V38.888H78.2103ZM89.7298 30.08V29.096H82.5898V27.956H91.0378V30.02C91.0378 30.644 90.9658 31.316 90.8578 31.796H89.5738C89.6818 31.316 89.7298 30.656 89.7298 30.08ZM81.9418 33.68V32.552H85.2538V30.332H86.5618V32.552H91.7458V33.68H81.9418ZM82.4578 36.896C82.4578 36.176 82.8298 35.684 83.4418 35.348C84.2458 34.916 85.4578 34.748 86.8618 34.748C88.2538 34.748 89.4778 34.916 90.2818 35.348C90.8938 35.684 91.2538 36.176 91.2538 36.896C91.2538 37.616 90.8938 38.108 90.2818 38.432C89.4778 38.864 88.2538 39.02 86.8618 39.02C85.4578 39.02 84.2458 38.864 83.4418 38.432C82.8298 38.108 82.4578 37.616 82.4578 36.896ZM83.7658 36.896C83.7658 37.16 83.9098 37.364 84.1738 37.52C84.6778 37.82 85.6018 37.928 86.8618 37.928C88.1098 37.928 89.0338 37.82 89.5378 37.52C89.8018 37.364 89.9578 37.16 89.9578 36.896C89.9578 36.62 89.8018 36.416 89.5378 36.26C89.0338 35.972 88.1098 35.852 86.8618 35.852C85.6018 35.852 84.6778 35.972 84.1738 36.26C83.9098 36.416 83.7658 36.62 83.7658 36.896ZM93.8334 29.168V28.016H98.2254V29.168H96.6774V32.876C96.6774 35.348 97.3134 36.248 98.3574 36.776V37.976C97.2294 37.58 96.4494 36.824 96.0294 35.96C95.6334 36.824 94.8534 37.58 93.7254 37.964V36.776C94.7454 36.248 95.4054 35.36 95.4054 32.876V29.168H93.8334ZM97.6134 33.2V32.048H99.2214V27.896H100.493V38.576H99.2214V33.2H97.6134ZM102.761 38.708H101.489V27.824H102.761V38.708ZM106.997 27.896V30.56H114.137V31.688H105.701V27.896H106.997ZM104.981 34.268V33.14H114.785V34.268H104.981ZM106.997 35.288V37.628H114.269V38.756H105.701V35.288H106.997ZM129.161 27.956V33.236H120.629V27.956H129.161ZM121.937 32.108H127.853V29.096H121.937V32.108ZM120.065 35.96V34.808H129.725V35.96H125.525V38.888H124.229V35.96H120.065ZM131.728 30.752C131.728 29.696 132.064 28.892 132.676 28.376C133.144 27.968 133.804 27.752 134.584 27.752C135.376 27.752 136.024 27.968 136.492 28.376C136.984 28.784 137.296 29.384 137.404 30.14H139.36V27.824H140.668V34.64H139.36V31.268H137.416C137.32 32.072 137.008 32.708 136.492 33.14C136.024 33.536 135.376 33.764 134.584 33.764C133.804 33.764 133.144 33.536 132.676 33.14C132.064 32.624 131.728 31.808 131.728 30.752ZM133 30.752C133 31.436 133.192 31.94 133.528 32.252C133.804 32.504 134.152 32.648 134.584 32.648C135.016 32.648 135.376 32.504 135.64 32.252C135.988 31.94 136.168 31.436 136.168 30.752C136.168 30.092 135.988 29.576 135.64 29.252C135.376 29.012 135.016 28.88 134.584 28.88C134.152 28.88 133.804 29.012 133.528 29.252C133.192 29.576 133 30.092 133 30.752ZM136.432 36.944C135.604 37.892 134.056 38.648 132.016 38.828V37.712C134.26 37.424 135.796 36.404 135.796 34.964V34.52H137.092V34.964C137.092 36.404 138.604 37.424 140.86 37.712V38.828C138.808 38.648 137.284 37.892 136.432 36.944ZM143.248 30.896C143.248 29.792 143.584 28.94 144.16 28.412C144.652 27.98 145.312 27.752 146.104 27.752C146.908 27.752 147.568 27.98 148.048 28.412C148.636 28.94 148.96 29.792 148.96 30.896C148.96 32.012 148.636 32.864 148.048 33.392C147.568 33.824 146.908 34.052 146.104 34.052C145.312 34.052 144.652 33.824 144.16 33.392C143.584 32.864 143.248 32.012 143.248 30.896ZM144.52 30.896C144.52 31.628 144.7 32.168 145.036 32.516C145.3 32.78 145.66 32.924 146.104 32.924C146.548 32.924 146.908 32.78 147.184 32.516C147.508 32.168 147.688 31.628 147.688 30.896C147.688 30.176 147.508 29.624 147.184 29.288C146.908 29.024 146.548 28.88 146.104 28.88C145.66 28.88 145.3 29.024 145.036 29.288C144.7 29.624 144.52 30.176 144.52 30.896ZM152.188 35.444H150.88V27.824H152.188V35.444ZM152.38 38.756H144.052V35.06H145.36V37.628H152.38V38.756ZM158.895 30.368V29.168H154.911V28.016H160.191V30.212C160.191 34.364 158.607 37.112 154.851 38.072V36.836C157.647 36.032 158.895 33.776 158.895 30.368ZM163.419 27.824V32.264H165.123V33.404H163.419V38.708H162.111V27.824H163.419ZM166.467 31.148C166.467 30.152 166.863 29.384 167.535 28.844C168.339 28.196 169.539 27.896 170.979 27.896C172.431 27.896 173.631 28.196 174.435 28.844C175.095 29.384 175.503 30.152 175.503 31.148C175.503 32.168 175.095 32.924 174.435 33.464C174.207 33.644 173.943 33.8 173.655 33.932V37.1H175.803V38.228H166.143V37.1H168.363V33.956C168.051 33.824 167.775 33.656 167.535 33.464C166.863 32.924 166.467 32.168 166.467 31.148ZM172.347 34.304C171.927 34.376 171.471 34.412 170.979 34.412C170.511 34.412 170.067 34.376 169.659 34.316V37.1H172.347V34.304ZM167.775 31.148C167.775 31.784 168.015 32.252 168.447 32.6C169.011 33.068 169.899 33.272 170.979 33.272C172.059 33.272 172.959 33.068 173.523 32.6C173.955 32.252 174.195 31.784 174.195 31.148C174.195 30.536 173.955 30.056 173.523 29.696C172.959 29.24 172.059 29.036 170.979 29.036C169.899 29.036 169.011 29.24 168.447 29.696C168.015 30.056 167.775 30.536 167.775 31.148ZM182.906 31.076C182.906 32.12 182.51 32.768 181.718 33.476C180.962 34.16 180.746 34.544 180.746 35.252V35.552H179.426V35.156C179.426 34.184 179.666 33.656 180.626 32.816C181.346 32.192 181.574 31.784 181.574 31.112C181.574 30.14 180.986 29.6 180.146 29.6C179.306 29.6 178.718 30.14 178.718 31.124H177.398V31.076C177.398 29.54 178.394 28.424 180.146 28.424C181.91 28.424 182.906 29.552 182.906 31.076ZM180.758 36.584V37.988H179.402V36.584H180.758Z" fill="#191919"/>
<path d="M21.656 54.42V53.592H25.256V52.488H26.228V53.592H29.864V54.42H26.24C26.456 55.536 28.412 56.292 29.996 56.4V57.216C28.28 57.108 26.492 56.412 25.748 55.416C24.98 56.424 23.192 57.12 21.488 57.216V56.4C23.06 56.304 25.028 55.524 25.232 54.42H21.656ZM20.924 59.136V58.296H25.256V56.808H26.228V58.296H30.596V59.136H20.924ZM21.44 62.088C21.44 61.476 21.764 61.044 22.34 60.744C23.108 60.348 24.296 60.18 25.772 60.18C27.236 60.18 28.436 60.348 29.192 60.744C29.768 61.044 30.104 61.476 30.104 62.088C30.104 62.676 29.768 63.108 29.192 63.408C28.436 63.804 27.236 63.96 25.772 63.96C24.296 63.96 23.108 63.804 22.34 63.408C21.764 63.108 21.44 62.676 21.44 62.088ZM22.412 62.088C22.412 62.34 22.568 62.544 22.856 62.712C23.396 63.012 24.404 63.168 25.772 63.168C27.128 63.168 28.136 63.012 28.676 62.712C28.988 62.544 29.132 62.34 29.132 62.088C29.132 61.824 28.988 61.608 28.676 61.44C28.136 61.152 27.128 61.008 25.772 61.008C24.404 61.008 23.396 61.152 22.856 61.44C22.568 61.608 22.412 61.824 22.412 62.088ZM43.9157 54.876V53.868H36.5837V53.016H44.8757V54.84C44.8757 55.452 44.8157 56.148 44.6717 56.664H43.7357C43.8677 56.148 43.9157 55.464 43.9157 54.876ZM35.9357 58.308V57.468H45.6077V58.308H35.9357ZM36.6677 59.4H37.6277V60.708H43.9157V59.4H44.8757V63.756H36.6677V59.4ZM43.9157 62.94V61.536H37.6277V62.94H43.9157ZM52.3153 57.972C52.3153 56.148 52.1473 54.84 51.6073 54.216C51.3553 53.904 50.9833 53.736 50.5273 53.736C50.0833 53.736 49.7113 53.904 49.4353 54.216C48.9193 54.84 48.7393 56.148 48.7393 57.972C48.7393 59.784 48.9193 61.104 49.4353 61.74C49.7113 62.052 50.0833 62.208 50.5273 62.208C50.9833 62.208 51.3553 62.052 51.6073 61.74C52.1473 61.104 52.3153 59.784 52.3153 57.972ZM47.7793 57.972C47.7793 55.956 48.0193 54.468 48.7393 53.652C49.1593 53.16 49.7713 52.896 50.5273 52.896C51.2713 52.896 51.8953 53.16 52.3153 53.652C52.6873 54.06 52.9273 54.648 53.0713 55.38H55.4593V52.896H56.4313V63.624H55.4593V60.288H53.1193C52.9753 61.152 52.7233 61.824 52.3153 62.292C51.8953 62.796 51.2713 63.024 50.5273 63.024C49.7713 63.024 49.1593 62.796 48.7393 62.292C48.0193 61.464 47.7793 59.976 47.7793 57.972ZM53.2033 56.22C53.2513 56.748 53.2753 57.336 53.2753 57.972C53.2753 58.5 53.2633 58.992 53.2273 59.448H55.4593V56.22H53.2033ZM62.431 54.456V53.58H68.035V54.372L64.771 62.988H63.703L67.015 54.456H62.431ZM70.1981 54.048H72.4421V52.56H73.4021V54.048H75.6461V54.876H73.4021V55.356C73.4021 57.18 74.5421 58.116 75.8381 58.428V59.28C74.5421 59.016 73.4381 58.248 72.9461 57.24C72.4541 58.26 71.3501 59.172 70.0181 59.424V58.572C71.3501 58.272 72.4421 57.204 72.4421 55.356V54.876H70.1981V54.048ZM78.8501 60.444H77.8901V56.844H75.5621V56.016H77.8901V52.896H78.8501V60.444ZM79.0541 63.684H70.8701V60.312H71.8421V62.856H79.0541V63.684ZM81.5736 58.716V53.016H86.7216V58.716H81.5736ZM85.7736 53.856H82.5216V57.9H85.7736V53.856ZM90.0696 52.896V55.932H91.7136V56.784H90.0696V60.372H89.1096V52.896H90.0696ZM83.1576 60.168V62.856H90.2736V63.684H82.1976V60.168H83.1576ZM93.2851 54.78C93.2851 54.192 93.5371 53.736 93.9451 53.412C94.4851 53.004 95.3011 52.824 96.1771 52.824C97.0411 52.824 97.8571 53.004 98.3971 53.412C98.8051 53.736 99.0571 54.192 99.0571 54.78C99.0571 55.38 98.8051 55.836 98.3971 56.136C97.8571 56.556 97.0411 56.748 96.1771 56.748C95.3011 56.748 94.4851 56.556 93.9451 56.136C93.5371 55.836 93.2851 55.38 93.2851 54.78ZM94.2091 54.78C94.2091 55.128 94.3651 55.392 94.6171 55.572C94.9651 55.848 95.5291 55.968 96.1771 55.968C96.8131 55.968 97.3771 55.848 97.7371 55.572C98.0011 55.392 98.1331 55.128 98.1331 54.78C98.1331 54.444 98.0011 54.18 97.7371 53.988C97.3771 53.724 96.8131 53.592 96.1771 53.592C95.5291 53.592 94.9651 53.724 94.6171 53.988C94.3651 54.18 94.2091 54.444 94.2091 54.78ZM96.1771 58.392V60.444H95.2051V58.392H92.8291V57.576H97.8211C98.6371 57.576 99.4411 57.504 100.041 57.3V58.068C99.3571 58.356 98.3731 58.392 97.3171 58.392H96.1771ZM101.889 61.092H100.929V60.084H98.4451V59.316H100.929V52.896H101.889V61.092ZM102.093 63.756H93.9091V60.804H94.8811V62.916H102.093V63.756ZM112.749 57.972C112.749 56.148 112.581 54.84 112.041 54.216C111.789 53.904 111.417 53.736 110.961 53.736C110.517 53.736 110.145 53.904 109.869 54.216C109.353 54.84 109.173 56.148 109.173 57.972C109.173 59.784 109.353 61.104 109.869 61.74C110.145 62.052 110.517 62.208 110.961 62.208C111.417 62.208 111.789 62.052 112.041 61.74C112.581 61.104 112.749 59.784 112.749 57.972ZM108.213 57.972C108.213 55.956 108.453 54.468 109.173 53.652C109.593 53.16 110.205 52.896 110.961 52.896C111.705 52.896 112.329 53.16 112.749 53.652C113.481 54.468 113.709 55.956 113.709 57.972C113.709 59.976 113.481 61.464 112.749 62.292C112.329 62.796 111.705 63.024 110.961 63.024C110.205 63.024 109.593 62.796 109.173 62.292C108.453 61.464 108.213 59.976 108.213 57.972ZM116.865 52.896V63.624H115.893V52.896H116.865ZM121.892 52.56H122.852V54.216H125.468V55.056H119.3V54.216H121.892V52.56ZM120.728 59.616C120.728 60.672 120.932 61.44 121.364 61.872C121.64 62.124 121.988 62.268 122.408 62.268C122.828 62.268 123.176 62.124 123.452 61.872C123.884 61.44 124.088 60.672 124.088 59.616C124.088 58.572 123.884 57.792 123.452 57.372C123.176 57.12 122.828 56.976 122.408 56.976C121.988 56.976 121.64 57.12 121.364 57.372C120.932 57.792 120.728 58.572 120.728 59.616ZM119.768 59.616C119.768 58.26 120.128 57.264 120.764 56.7C121.184 56.328 121.748 56.136 122.408 56.136C123.068 56.136 123.632 56.328 124.052 56.7C124.688 57.264 125.048 58.26 125.048 59.616C125.048 60.984 124.688 61.968 124.052 62.532C123.632 62.904 123.068 63.084 122.408 63.084C121.748 63.084 121.184 62.904 120.764 62.532C120.128 61.968 119.768 60.984 119.768 59.616ZM128.12 52.896V57.408H129.872V58.248H128.12V63.636H127.16V52.896H128.12ZM142.4 55.212V53.868H135.068V53.016H143.36V55.188C143.36 55.884 143.276 56.7 143.108 57.264H142.172C142.328 56.688 142.4 55.896 142.4 55.212ZM134.42 59.052V58.224H144.092V59.052H134.42ZM136.112 60.372V62.856H143.576V63.684H135.152V60.372H136.112ZM147.536 56.856V58.968H155.108V59.796H151.28V62.316H155.552V63.156H146V62.316H150.308V59.796H146.576V56.028H154.004V53.928H146.576V53.088H154.964V56.856H147.536ZM162.283 56.1C161.611 57.516 160.123 58.8 157.699 59.268V58.416C160.171 57.864 161.791 56.244 161.791 53.892V53.016H162.763V53.892C162.763 56.244 164.443 57.864 166.867 58.416V59.268C164.467 58.788 162.955 57.516 162.283 56.1ZM157.519 63.156V62.316H161.791V58.896H162.763V62.316H167.071V63.156H157.519ZM177.919 53.844H170.671V55.92H177.991V56.736H169.711V53.016H177.919V53.844ZM168.979 59.064V58.248H178.651V59.064H168.979ZM176.959 63.816V61.428H169.627V60.6H177.919V63.816H176.959ZM180.726 53.088H186.486V53.928H184.074V57.312C184.074 60.06 185.334 61.392 186.594 62.004V62.892C185.202 62.352 184.062 61.176 183.606 59.88C183.15 61.176 181.962 62.376 180.606 62.892V62.004C181.842 61.416 183.114 60.06 183.114 57.312V53.928H180.726V53.088ZM189.21 52.896V57.408H190.962V58.248H189.21V63.636H188.25V52.896H189.21ZM196.554 55.356V53.928H192.378V53.088H197.514V55.26C197.514 59.364 195.882 62.016 192.306 62.964V62.064C195.174 61.224 196.554 58.908 196.554 55.356ZM200.73 52.896V57.408H202.482V58.248H200.73V63.636H199.77V52.896H200.73ZM210.497 52.956V54.864C210.497 56.712 211.673 57.768 213.041 58.2V59.064C211.649 58.692 210.509 57.828 210.005 56.832C209.585 57.852 208.433 58.8 206.969 59.196V58.32C208.385 57.876 209.525 56.676 209.525 54.864V52.956H210.497ZM216.041 60.372H215.081V52.896H216.041V60.372ZM216.245 63.684H208.061V60.168H209.033V62.856H216.245V63.684ZM219.065 54.84C219.065 54.312 219.305 53.904 219.737 53.592C220.469 53.088 221.753 52.896 223.397 52.896C225.029 52.896 226.325 53.088 227.057 53.592C227.477 53.904 227.729 54.312 227.729 54.84C227.729 55.38 227.477 55.788 227.057 56.088C226.757 56.304 226.361 56.46 225.893 56.568V58.044H228.221V58.872H218.549V58.044H220.937V56.58C220.445 56.472 220.037 56.304 219.737 56.088C219.305 55.788 219.065 55.38 219.065 54.84ZM224.933 56.736C224.465 56.784 223.949 56.808 223.397 56.808C222.845 56.808 222.341 56.784 221.885 56.736V58.044H224.933V56.736ZM220.037 54.84C220.037 55.104 220.157 55.32 220.409 55.488C220.937 55.836 221.969 55.98 223.397 55.98C224.825 55.98 225.869 55.836 226.373 55.488C226.637 55.32 226.757 55.104 226.757 54.84C226.757 54.588 226.637 54.384 226.373 54.216C225.869 53.856 224.825 53.712 223.397 53.712C221.969 53.712 220.937 53.856 220.409 54.216C220.157 54.384 220.037 54.588 220.037 54.84ZM219.065 62.004C219.065 61.416 219.341 60.984 219.869 60.672C220.601 60.24 221.801 60.036 223.397 60.036C224.993 60.036 226.181 60.24 226.913 60.672C227.441 60.984 227.729 61.416 227.729 62.004C227.729 62.58 227.441 63.024 226.913 63.348C226.181 63.78 224.993 63.96 223.397 63.96C221.801 63.96 220.601 63.78 219.869 63.348C219.341 63.024 219.065 62.58 219.065 62.004ZM220.037 62.004C220.037 62.28 220.181 62.508 220.457 62.676C220.985 63 221.969 63.156 223.397 63.156C224.825 63.156 225.809 63 226.337 62.676C226.625 62.508 226.757 62.28 226.757 62.004C226.757 61.74 226.625 61.512 226.337 61.332C225.809 61.008 224.825 60.852 223.397 60.852C221.969 60.852 220.985 61.008 220.457 61.332C220.181 61.512 220.037 61.74 220.037 62.004ZM234.605 55.356V53.928H230.429V53.088H235.565V55.26C235.565 59.364 233.933 62.016 230.357 62.94V62.064C232.529 61.428 233.837 59.964 234.353 57.78C233.813 57.972 232.997 58.068 232.097 58.068H230.357V57.216H232.133C233.093 57.216 233.981 57.12 234.509 56.904C234.569 56.424 234.605 55.908 234.605 55.356ZM238.781 52.896V57.408H240.533V58.248H238.781V63.636H237.821V52.896H238.781ZM29.948 73.928H22.52V78.272H30.08V79.124H21.56V73.088H29.948V73.928ZM20.984 83.156V82.316H30.536V83.156H20.984ZM44.8757 73.844H37.6277V75.776H44.9477V76.592H36.6677V73.016H44.8757V73.844ZM35.9357 78.788V77.96H45.6077V78.788H35.9357ZM36.4517 82.004C36.4517 81.416 36.7277 80.984 37.2557 80.672C37.9877 80.24 39.1877 80.036 40.7837 80.036C42.3797 80.036 43.5677 80.24 44.2997 80.672C44.8277 80.984 45.1157 81.416 45.1157 82.004C45.1157 82.58 44.8277 83.024 44.2997 83.348C43.5677 83.78 42.3797 83.96 40.7837 83.96C39.1877 83.96 37.9877 83.78 37.2557 83.348C36.7277 83.024 36.4517 82.58 36.4517 82.004ZM37.4237 82.004C37.4237 82.28 37.5677 82.508 37.8437 82.676C38.3717 83 39.3557 83.156 40.7837 83.156C42.2117 83.156 43.1957 83 43.7237 82.676C44.0117 82.508 44.1437 82.28 44.1437 82.004C44.1437 81.74 44.0117 81.512 43.7237 81.332C43.1957 81.008 42.2117 80.852 40.7837 80.852C39.3557 80.852 38.3717 81.008 37.8437 81.332C37.5677 81.512 37.4237 81.74 37.4237 82.004ZM47.8513 76.22C47.8513 75.2 48.2713 74.36 49.0153 73.808C49.7833 73.22 50.8993 72.968 52.2913 72.968C53.6833 72.968 54.7993 73.22 55.5793 73.808C56.3113 74.36 56.7313 75.2 56.7313 76.22C56.7313 77.228 56.3113 78.08 55.5793 78.62C54.7993 79.196 53.6833 79.46 52.2913 79.46C50.8993 79.46 49.7833 79.196 49.0153 78.62C48.2713 78.08 47.8513 77.228 47.8513 76.22ZM48.8113 76.22C48.8113 76.928 49.0993 77.504 49.5913 77.9C50.1913 78.356 51.1153 78.62 52.2913 78.62C53.4913 78.62 54.3913 78.356 55.0033 77.9C55.5073 77.504 55.7713 76.928 55.7713 76.22C55.7713 75.512 55.5073 74.924 55.0033 74.54C54.3913 74.072 53.4913 73.82 52.2913 73.82C51.1153 73.82 50.1913 74.072 49.5913 74.54C49.0993 74.924 48.8113 75.512 48.8113 76.22ZM47.5153 83.156V82.316H57.0673V83.156H47.5153ZM60.5708 76.856V78.968H68.1428V79.796H64.3148V82.316H68.5868V83.156H59.0348V82.316H63.3428V79.796H59.6108V76.028H67.0388V73.928H59.6108V73.088H67.9988V76.856H60.5708ZM76.9745 79.796C76.5785 81.212 75.3185 82.364 73.8665 82.892V82.004C75.2105 81.392 76.4825 80.18 76.4825 77.216V73.016H77.4545V77.216C77.4545 80.18 78.7385 81.356 80.0705 82.004V82.892C78.6425 82.34 77.3825 81.2 76.9745 79.796ZM82.6985 72.896V77.408H84.4505V78.248H82.6985V83.636H81.7385V72.896H82.6985ZM86.022 74.84C86.022 74.312 86.262 73.904 86.694 73.592C87.426 73.088 88.71 72.896 90.354 72.896C91.986 72.896 93.282 73.088 94.014 73.592C94.434 73.904 94.686 74.312 94.686 74.84C94.686 75.38 94.434 75.788 94.014 76.088C93.714 76.304 93.318 76.46 92.85 76.568V78.044H95.178V78.872H85.506V78.044H87.894V76.58C87.402 76.472 86.994 76.304 86.694 76.088C86.262 75.788 86.022 75.38 86.022 74.84ZM91.89 76.736C91.422 76.784 90.906 76.808 90.354 76.808C89.802 76.808 89.298 76.784 88.842 76.736V78.044H91.89V76.736ZM86.994 74.84C86.994 75.104 87.114 75.32 87.366 75.488C87.894 75.836 88.926 75.98 90.354 75.98C91.782 75.98 92.826 75.836 93.33 75.488C93.594 75.32 93.714 75.104 93.714 74.84C93.714 74.588 93.594 74.384 93.33 74.216C92.826 73.856 91.782 73.712 90.354 73.712C88.926 73.712 87.894 73.856 87.366 74.216C87.114 74.384 86.994 74.588 86.994 74.84ZM86.022 82.004C86.022 81.416 86.298 80.984 86.826 80.672C87.558 80.24 88.758 80.036 90.354 80.036C91.95 80.036 93.138 80.24 93.87 80.672C94.398 80.984 94.686 81.416 94.686 82.004C94.686 82.58 94.398 83.024 93.87 83.348C93.138 83.78 91.95 83.96 90.354 83.96C88.758 83.96 87.558 83.78 86.826 83.348C86.298 83.024 86.022 82.58 86.022 82.004ZM86.994 82.004C86.994 82.28 87.138 82.508 87.414 82.676C87.942 83 88.926 83.156 90.354 83.156C91.782 83.156 92.766 83 93.294 82.676C93.582 82.508 93.714 82.28 93.714 82.004C93.714 81.74 93.582 81.512 93.294 81.332C92.766 81.008 91.782 80.852 90.354 80.852C88.926 80.852 87.942 81.008 87.414 81.332C87.138 81.512 86.994 81.74 86.994 82.004ZM96.8576 74.624V73.832H99.4496V72.56H100.398V73.832H102.954V74.624H96.8576ZM98.1296 77.672C98.1296 78.056 98.2976 78.356 98.5736 78.596C98.9096 78.86 99.3776 79.004 99.9056 79.004C100.434 79.004 100.914 78.86 101.25 78.596C101.526 78.356 101.694 78.056 101.694 77.672C101.694 77.288 101.526 76.976 101.25 76.748C100.914 76.472 100.434 76.328 99.9056 76.328C99.3776 76.328 98.9096 76.472 98.5736 76.748C98.2976 76.976 98.1296 77.288 98.1296 77.672ZM97.1936 77.672C97.1936 77.024 97.4696 76.484 97.9496 76.124C98.4296 75.752 99.1256 75.548 99.9056 75.548C100.698 75.548 101.382 75.752 101.874 76.124C102.354 76.484 102.63 77.024 102.63 77.672C102.63 78.308 102.354 78.848 101.874 79.208C101.382 79.58 100.698 79.784 99.9056 79.784C99.1256 79.784 98.4296 79.58 97.9496 79.208C97.4696 78.848 97.1936 78.308 97.1936 77.672ZM105.738 72.896V76.064H107.382V76.916H105.738V80.696H104.778V72.896H105.738ZM98.8256 80.612V82.856H105.942V83.684H97.8656V80.612H98.8256ZM120.977 76.988H112.769V73.016H120.977V76.988ZM120.017 76.16V73.844H113.729V76.16H120.017ZM112.037 79.316V78.476H121.709V79.316H117.473V81.44H116.513V79.316H112.037ZM113.729 80.648V82.856H121.193V83.684H112.769V80.648H113.729ZM127.241 72.56V73.928H129.713V74.768H123.809V73.928H126.269V72.56H127.241ZM125.093 78.044C125.093 78.476 125.249 78.848 125.525 79.136C125.825 79.424 126.257 79.604 126.773 79.604C127.289 79.604 127.721 79.424 128.021 79.136C128.309 78.848 128.453 78.476 128.453 78.044C128.453 77.6 128.309 77.228 128.021 76.952C127.721 76.652 127.289 76.472 126.773 76.472C126.257 76.472 125.825 76.652 125.525 76.952C125.249 77.228 125.093 77.6 125.093 78.044ZM124.133 78.044C124.133 77.348 124.385 76.772 124.841 76.364C125.297 75.92 125.981 75.668 126.773 75.668C127.577 75.668 128.249 75.92 128.717 76.364C129.161 76.772 129.425 77.348 129.425 78.044C129.425 78.728 129.161 79.316 128.717 79.724C128.345 80.072 127.841 80.3 127.253 80.384V82.172H128.825C129.893 82.172 130.793 81.932 131.309 81.488V72.896H132.269V77.408H134.021V78.248H132.269V83.624H131.309V82.304C130.781 82.772 129.833 83.012 128.681 83.012H123.653V82.172H126.293V80.384C125.705 80.3 125.201 80.06 124.841 79.724C124.385 79.316 124.133 78.728 124.133 78.044ZM136.48 77.036H139.684V73.088H140.632V82.88H135.532V73.088H136.48V77.036ZM139.684 82.052V77.876H136.48V82.052H139.684ZM144.052 72.896V83.624H143.08V72.896H144.052ZM148.288 72.956V75.74H155.608V76.58H147.328V72.956H148.288ZM146.596 79.172V78.332H156.268V79.172H146.596ZM148.288 80.372V82.856H155.752V83.684H147.328V80.372H148.288ZM161.824 75.896C161.824 74.852 162.124 74.036 162.7 73.508C163.156 73.064 163.804 72.824 164.596 72.824C165.376 72.824 166.024 73.064 166.492 73.508C166.684 73.7 166.852 73.916 166.996 74.18H169.66V72.896H170.62V80.372H169.66V77.612H166.996C166.864 77.876 166.696 78.104 166.492 78.296C166.024 78.728 165.376 78.98 164.596 78.98C163.804 78.98 163.156 78.728 162.7 78.296C162.124 77.768 161.824 76.952 161.824 75.896ZM167.284 75.008C167.332 75.284 167.368 75.584 167.368 75.896C167.368 76.22 167.344 76.508 167.284 76.784H169.66V75.008H167.284ZM162.76 75.896C162.76 76.676 162.964 77.288 163.348 77.672C163.648 77.972 164.068 78.14 164.596 78.14C165.124 78.14 165.532 77.972 165.844 77.672C166.228 77.288 166.42 76.676 166.42 75.896C166.42 75.128 166.228 74.528 165.844 74.132C165.532 73.832 165.124 73.664 164.596 73.664C164.068 73.664 163.648 73.832 163.348 74.132C162.964 74.528 162.76 75.128 162.76 75.896ZM170.824 83.684H162.64V80.168H163.612V82.856H170.824V83.684ZM181.299 80.348C181.299 79.16 180.555 78.428 179.403 78.428H178.455V77.552H179.427C180.459 77.552 181.023 76.832 181.023 75.932C181.023 74.96 180.339 74.3 179.355 74.3C178.335 74.3 177.687 74.96 177.687 75.932V76.064H176.667V75.848C176.667 74.48 177.663 73.424 179.355 73.424C181.035 73.424 182.031 74.48 182.031 75.848C182.031 76.904 181.491 77.708 180.567 77.984C181.611 78.26 182.307 79.076 182.307 80.384C182.307 82.088 181.107 83.144 179.355 83.144C177.615 83.144 176.391 82.064 176.391 80.324V80.204H177.399V80.276C177.399 81.548 178.227 82.268 179.355 82.268C180.471 82.268 181.299 81.56 181.299 80.348ZM189.786 78.284C189.786 80.444 189.498 81.524 188.874 82.28C188.394 82.844 187.674 83.144 186.75 83.144C185.826 83.144 185.106 82.844 184.626 82.28C184.002 81.524 183.702 80.444 183.702 78.284C183.702 76.124 184.002 75.044 184.626 74.288C185.106 73.724 185.826 73.424 186.75 73.424C187.674 73.424 188.394 73.724 188.874 74.288C189.498 75.044 189.786 76.124 189.786 78.284ZM188.778 78.284C188.778 76.4 188.598 75.488 188.178 74.948C187.842 74.528 187.374 74.3 186.75 74.3C186.138 74.3 185.658 74.528 185.322 74.948C184.902 75.488 184.722 76.4 184.722 78.284C184.722 80.168 184.89 81.092 185.322 81.632C185.646 82.052 186.138 82.268 186.75 82.268C187.374 82.268 187.854 82.052 188.178 81.632C188.598 81.092 188.778 80.168 188.778 78.284ZM197.158 78.284C197.158 80.444 196.87 81.524 196.246 82.28C195.766 82.844 195.046 83.144 194.122 83.144C193.198 83.144 192.478 82.844 191.998 82.28C191.374 81.524 191.074 80.444 191.074 78.284C191.074 76.124 191.374 75.044 191.998 74.288C192.478 73.724 193.198 73.424 194.122 73.424C195.046 73.424 195.766 73.724 196.246 74.288C196.87 75.044 197.158 76.124 197.158 78.284ZM196.15 78.284C196.15 76.4 195.97 75.488 195.55 74.948C195.214 74.528 194.746 74.3 194.122 74.3C193.51 74.3 193.03 74.528 192.694 74.948C192.274 75.488 192.094 76.4 192.094 78.284C192.094 80.168 192.262 81.092 192.694 81.632C193.018 82.052 193.51 82.268 194.122 82.268C194.746 82.268 195.226 82.052 195.55 81.632C195.97 81.092 196.15 80.168 196.15 78.284ZM198.949 78.716V73.016H204.097V78.716H198.949ZM203.149 73.856H199.897V77.9H203.149V73.856ZM207.445 72.896V75.932H209.089V76.784H207.445V80.372H206.485V72.896H207.445ZM200.533 80.168V82.856H207.649V83.684H199.573V80.168H200.533ZM210.66 74.78C210.66 74.192 210.912 73.736 211.32 73.412C211.86 73.004 212.676 72.824 213.552 72.824C214.416 72.824 215.232 73.004 215.772 73.412C216.18 73.736 216.432 74.192 216.432 74.78C216.432 75.38 216.18 75.836 215.772 76.136C215.232 76.556 214.416 76.748 213.552 76.748C212.676 76.748 211.86 76.556 211.32 76.136C210.912 75.836 210.66 75.38 210.66 74.78ZM211.584 74.78C211.584 75.128 211.74 75.392 211.992 75.572C212.34 75.848 212.904 75.968 213.552 75.968C214.188 75.968 214.752 75.848 215.112 75.572C215.376 75.392 215.508 75.128 215.508 74.78C215.508 74.444 215.376 74.18 215.112 73.988C214.752 73.724 214.188 73.592 213.552 73.592C212.904 73.592 212.34 73.724 211.992 73.988C211.74 74.18 211.584 74.444 211.584 74.78ZM213.552 78.392V80.444H212.58V78.392H210.204V77.576H215.196C216.012 77.576 216.816 77.504 217.416 77.3V78.068C216.732 78.356 215.748 78.392 214.692 78.392H213.552ZM219.264 81.092H218.304V80.084H215.82V79.316H218.304V72.896H219.264V81.092ZM219.468 83.756H211.284V80.804H212.256V82.916H219.468V83.756ZM225.096 74.624V73.832H227.688V72.56H228.636V73.832H231.192V74.624H225.096ZM226.368 77.672C226.368 78.056 226.536 78.356 226.812 78.596C227.148 78.86 227.616 79.004 228.144 79.004C228.672 79.004 229.152 78.86 229.488 78.596C229.764 78.356 229.932 78.056 229.932 77.672C229.932 77.288 229.764 76.976 229.488 76.748C229.152 76.472 228.672 76.328 228.144 76.328C227.616 76.328 227.148 76.472 226.812 76.748C226.536 76.976 226.368 77.288 226.368 77.672ZM225.432 77.672C225.432 77.024 225.708 76.484 226.188 76.124C226.668 75.752 227.364 75.548 228.144 75.548C228.936 75.548 229.62 75.752 230.112 76.124C230.592 76.484 230.868 77.024 230.868 77.672C230.868 78.308 230.592 78.848 230.112 79.208C229.62 79.58 228.936 79.784 228.144 79.784C227.364 79.784 226.668 79.58 226.188 79.208C225.708 78.848 225.432 78.308 225.432 77.672ZM233.976 72.896V76.064H235.62V76.916H233.976V80.696H233.016V72.896H233.976ZM227.064 80.612V82.856H234.18V83.684H226.104V80.612H227.064ZM29.948 93.928H22.52V98.104H30.044V98.956H26.264V102.316H30.536V103.156H20.984V102.316H25.292V98.956H21.56V93.088H29.948V93.928ZM39.1037 102.88H36.3317V93.016H37.2797V102.052H39.2717C40.2437 102.052 40.9997 101.836 41.4917 101.404V92.956H42.4277V97.324H44.1317V92.896H45.0677V103.636H44.1317V98.164H42.4277V103.516H41.4917V102.196C41.0237 102.664 40.1957 102.88 39.1037 102.88ZM47.6833 97.972C47.6833 95.452 47.9233 94.048 48.5833 93.364C48.8833 93.064 49.2913 92.896 49.8073 92.896C50.3353 92.896 50.7553 93.064 51.0433 93.364C51.6553 93.988 51.8953 95.2 51.9313 97.3H53.3833V92.956H54.3193V103.516H53.3833V98.14H51.9433C51.9313 100.552 51.7033 101.908 51.0433 102.568C50.7553 102.88 50.3353 103.024 49.8073 103.024C49.2913 103.024 48.8833 102.88 48.5833 102.568C47.9233 101.896 47.6833 100.492 47.6833 97.972ZM48.6193 97.972C48.6193 100.216 48.7513 101.416 49.1833 101.932C49.3513 102.112 49.5553 102.208 49.8073 102.208C50.0713 102.208 50.2873 102.112 50.4433 101.932C50.8753 101.416 51.0193 100.216 51.0193 97.972C51.0193 95.74 50.8753 94.528 50.4433 94.024C50.2873 93.832 50.0713 93.736 49.8073 93.736C49.5553 93.736 49.3513 93.832 49.1833 94.024C48.7513 94.528 48.6193 95.74 48.6193 97.972ZM56.5873 103.624H55.6513V92.896H56.5873V103.624ZM62.0228 99.796C61.6268 101.212 60.3668 102.364 58.9148 102.892V102.004C60.2708 101.392 61.5428 100.18 61.5428 97.216V93.016H62.5028V97.216C62.5028 100.18 63.7868 101.356 65.1188 102.004V102.892C63.6908 102.34 62.4428 101.2 62.0228 99.796ZM67.9508 92.896V103.636H66.9788V97.72H64.3148V96.868H66.9788V92.896H67.9508ZM74.4425 94.9V94.048H76.8185V92.56H77.7785V94.048H80.1065V94.9H77.7785V95.284C77.7785 97.012 78.9545 98.08 80.2865 98.584V99.448C78.9305 99.028 77.7545 98.116 77.3105 97.18C76.8785 98.152 75.7505 99.124 74.2985 99.58V98.704C75.6665 98.2 76.8185 97.024 76.8185 95.284V94.9H74.4425ZM82.9625 103.636H81.9905V102.316C81.3905 102.844 80.2745 103.012 78.9065 103.012H74.0825V102.172H76.8425V99.424H77.8025V102.172H79.2545C80.3105 102.172 81.3425 102.028 81.9905 101.488V92.896H82.9625V103.636ZM88.806 102.88H85.902V93.088H89.658V93.928H86.838V102.052H88.974C89.946 102.052 90.702 101.836 91.194 101.404V92.956H92.13V97.324H93.702V92.896H94.638V103.636H93.702V98.164H92.13V103.516H91.194V102.196C90.714 102.664 89.898 102.88 88.806 102.88ZM104.55 102.988H103.53V94.648L101.19 95.692V94.696L103.674 93.58H104.55V102.988ZM113.685 98.284C113.685 100.444 113.397 101.524 112.773 102.28C112.293 102.844 111.573 103.144 110.649 103.144C109.725 103.144 109.005 102.844 108.525 102.28C107.901 101.524 107.601 100.444 107.601 98.284C107.601 96.124 107.901 95.044 108.525 94.288C109.005 93.724 109.725 93.424 110.649 93.424C111.573 93.424 112.293 93.724 112.773 94.288C113.397 95.044 113.685 96.124 113.685 98.284ZM112.677 98.284C112.677 96.4 112.497 95.488 112.077 94.948C111.741 94.528 111.273 94.3 110.649 94.3C110.037 94.3 109.557 94.528 109.221 94.948C108.801 95.488 108.621 96.4 108.621 98.284C108.621 100.168 108.789 101.092 109.221 101.632C109.545 102.052 110.037 102.268 110.649 102.268C111.273 102.268 111.753 102.052 112.077 101.632C112.497 101.092 112.677 100.168 112.677 98.284ZM121.056 98.284C121.056 100.444 120.768 101.524 120.144 102.28C119.664 102.844 118.944 103.144 118.02 103.144C117.096 103.144 116.376 102.844 115.896 102.28C115.272 101.524 114.972 100.444 114.972 98.284C114.972 96.124 115.272 95.044 115.896 94.288C116.376 93.724 117.096 93.424 118.02 93.424C118.944 93.424 119.664 93.724 120.144 94.288C120.768 95.044 121.056 96.124 121.056 98.284ZM120.048 98.284C120.048 96.4 119.868 95.488 119.448 94.948C119.112 94.528 118.644 94.3 118.02 94.3C117.408 94.3 116.928 94.528 116.592 94.948C116.172 95.488 115.992 96.4 115.992 98.284C115.992 100.168 116.16 101.092 116.592 101.632C116.916 102.052 117.408 102.268 118.02 102.268C118.644 102.268 119.124 102.052 119.448 101.632C119.868 101.092 120.048 100.168 120.048 98.284ZM122.847 98.716V93.016H127.995V98.716H122.847ZM127.047 93.856H123.795V97.9H127.047V93.856ZM131.343 92.896V95.932H132.987V96.784H131.343V100.372H130.383V92.896H131.343ZM124.431 100.168V102.856H131.547V103.684H123.471V100.168H124.431ZM134.559 94.78C134.559 94.192 134.811 93.736 135.219 93.412C135.759 93.004 136.575 92.824 137.451 92.824C138.315 92.824 139.131 93.004 139.671 93.412C140.079 93.736 140.331 94.192 140.331 94.78C140.331 95.38 140.079 95.836 139.671 96.136C139.131 96.556 138.315 96.748 137.451 96.748C136.575 96.748 135.759 96.556 135.219 96.136C134.811 95.836 134.559 95.38 134.559 94.78ZM135.483 94.78C135.483 95.128 135.639 95.392 135.891 95.572C136.239 95.848 136.803 95.968 137.451 95.968C138.087 95.968 138.651 95.848 139.011 95.572C139.275 95.392 139.407 95.128 139.407 94.78C139.407 94.444 139.275 94.18 139.011 93.988C138.651 93.724 138.087 93.592 137.451 93.592C136.803 93.592 136.239 93.724 135.891 93.988C135.639 94.18 135.483 94.444 135.483 94.78ZM137.451 98.392V100.444H136.479V98.392H134.103V97.576H139.095C139.911 97.576 140.715 97.504 141.315 97.3V98.068C140.631 98.356 139.647 98.392 138.591 98.392H137.451ZM143.163 101.092H142.203V100.084H139.719V99.316H142.203V92.896H143.163V101.092ZM143.367 103.756H135.183V100.804H136.155V102.916H143.367V103.756ZM154.514 92.896V97.408H156.17V98.248H154.514V103.636H153.554V92.896H154.514ZM151.73 93.088V98.164C151.73 101.008 150.842 102.604 148.886 103.36V102.472C150.11 101.884 150.77 100.6 150.77 98.116V93.928H148.85V97.612C148.85 100.492 147.794 102.052 145.874 102.76V101.884C147.074 101.32 147.902 100.084 147.902 97.552V93.928H145.934V93.088H151.73ZM157.514 93.088H163.286V93.928H160.874V97.312C160.874 100.06 162.11 101.392 163.37 102.004V102.892C162.002 102.352 160.85 101.176 160.382 99.88C159.938 101.176 158.738 102.376 157.394 102.892V102.004C158.618 101.416 159.902 100.06 159.902 97.312V93.928H157.514V93.088ZM166.166 92.896V103.624H165.194V92.896H166.166ZM176.881 100.348C176.881 99.16 176.137 98.428 174.985 98.428H174.037V97.552H175.009C176.041 97.552 176.605 96.832 176.605 95.932C176.605 94.96 175.921 94.3 174.937 94.3C173.917 94.3 173.269 94.96 173.269 95.932V96.064H172.249V95.848C172.249 94.48 173.245 93.424 174.937 93.424C176.617 93.424 177.613 94.48 177.613 95.848C177.613 96.904 177.073 97.708 176.149 97.984C177.193 98.26 177.889 99.076 177.889 100.384C177.889 102.088 176.689 103.144 174.937 103.144C173.197 103.144 171.973 102.064 171.973 100.324V100.204H172.981V100.276C172.981 101.548 173.809 102.268 174.937 102.268C176.053 102.268 176.881 101.56 176.881 100.348ZM185.368 98.284C185.368 100.444 185.08 101.524 184.456 102.28C183.976 102.844 183.256 103.144 182.332 103.144C181.408 103.144 180.688 102.844 180.208 102.28C179.584 101.524 179.284 100.444 179.284 98.284C179.284 96.124 179.584 95.044 180.208 94.288C180.688 93.724 181.408 93.424 182.332 93.424C183.256 93.424 183.976 93.724 184.456 94.288C185.08 95.044 185.368 96.124 185.368 98.284ZM184.36 98.284C184.36 96.4 184.18 95.488 183.76 94.948C183.424 94.528 182.956 94.3 182.332 94.3C181.72 94.3 181.24 94.528 180.904 94.948C180.484 95.488 180.304 96.4 180.304 98.284C180.304 100.168 180.472 101.092 180.904 101.632C181.228 102.052 181.72 102.268 182.332 102.268C182.956 102.268 183.436 102.052 183.76 101.632C184.18 101.092 184.36 100.168 184.36 98.284ZM189.788 102.988H188.924L192.776 93.58H193.64L189.788 102.988ZM190.544 95.956C190.544 97.648 189.848 98.5 188.648 98.5C187.436 98.5 186.74 97.648 186.74 95.956C186.74 94.264 187.436 93.424 188.648 93.424C189.848 93.424 190.544 94.264 190.544 95.956ZM189.68 95.956C189.68 94.612 189.308 94.156 188.648 94.156C187.976 94.156 187.604 94.612 187.604 95.956C187.604 97.312 187.976 97.768 188.648 97.768C189.308 97.768 189.68 97.312 189.68 95.956ZM192.02 100.612C192.02 98.92 192.716 98.068 193.928 98.068C195.128 98.068 195.824 98.92 195.824 100.612C195.824 102.304 195.128 103.144 193.928 103.144C192.716 103.144 192.02 102.304 192.02 100.612ZM192.884 100.612C192.884 101.956 193.256 102.412 193.928 102.412C194.588 102.412 194.96 101.956 194.96 100.612C194.96 99.256 194.588 98.8 193.928 98.8C193.256 98.8 192.884 99.256 192.884 100.612ZM205.783 96.1C205.111 97.516 203.623 98.8 201.199 99.268V98.416C203.671 97.864 205.291 96.244 205.291 93.892V93.016H206.263V93.892C206.263 96.244 207.943 97.864 210.367 98.416V99.268C207.967 98.788 206.455 97.516 205.783 96.1ZM201.019 103.156V102.316H205.291V98.896H206.263V102.316H210.571V103.156H201.019ZM221.419 93.844H214.171V95.92H221.491V96.736H213.211V93.016H221.419V93.844ZM212.479 99.064V98.248H222.151V99.064H212.479ZM220.459 103.816V101.428H213.127V100.6H221.419V103.816H220.459ZM231.978 95.008V93.868H224.646V93.016H232.938V94.972C232.938 95.56 232.878 96.268 232.77 96.736H231.822C231.93 96.256 231.978 95.572 231.978 95.008ZM223.998 98.524V97.696H227.418V95.38H228.39V97.696H233.67V98.524H223.998ZM224.514 101.944C224.514 101.296 224.838 100.852 225.39 100.528C226.146 100.096 227.358 99.904 228.846 99.904C230.322 99.904 231.546 100.096 232.302 100.528C232.854 100.852 233.178 101.296 233.178 101.944C233.178 102.568 232.854 103.036 232.302 103.348C231.546 103.792 230.322 103.96 228.846 103.96C227.358 103.96 226.146 103.792 225.39 103.348C224.838 103.036 224.514 102.568 224.514 101.944ZM225.486 101.944C225.486 102.244 225.642 102.484 225.93 102.664C226.47 103 227.478 103.156 228.846 103.156C230.202 103.156 231.21 103 231.75 102.664C232.05 102.484 232.206 102.244 232.206 101.944C232.206 101.632 232.05 101.404 231.75 101.212C231.21 100.876 230.202 100.72 228.846 100.72C227.478 100.72 226.47 100.876 225.93 101.212C225.642 101.404 225.486 101.632 225.486 101.944ZM21.32 113.088H25.604V113.928H23.936V118.104C23.936 120.492 24.704 121.5 25.736 122.004V122.892C24.584 122.46 23.792 121.536 23.456 120.552C23.144 121.548 22.34 122.448 21.2 122.88V122.004C22.208 121.476 23 120.504 23 118.104V113.928H21.32V113.088ZM25.064 118.056V117.204H26.828V112.956H27.764V123.516H26.828V118.056H25.064ZM30.056 123.624H29.12V112.896H30.056V123.624ZM34.1355 115.38V116.328H41.4555V117.06H33.1755V114.66H40.4235V113.76H33.1755V113.016H41.3835V115.38H34.1355ZM32.4435 118.776V117.996H42.1155V118.776H32.4435ZM34.1355 122.076V123.048H41.6475V123.756H33.1755V121.38H40.4235V120.456H33.1755V119.736H41.3835V122.076H34.1355ZM48.0913 114.696V113.856H51.7873V112.488H52.7593V113.856H56.4793V114.696H52.7593C52.8433 116.508 54.6913 117.588 56.5753 117.9V118.764C54.6313 118.44 53.0353 117.588 52.2793 116.292C51.5353 117.588 49.8793 118.44 47.9593 118.764V117.9C49.8073 117.6 51.6913 116.508 51.7873 114.696H48.0913ZM47.5153 120.876V120.036H57.0673V120.876H52.7593V123.816H51.7873V120.876H47.5153ZM63.5108 115.356V113.928H59.3348V113.088H64.4708V115.26C64.4708 119.364 62.8388 122.016 59.2628 122.964V122.064C62.1308 121.224 63.5108 118.908 63.5108 115.356ZM67.6868 112.896V117.408H69.4388V118.248H67.6868V123.636H66.7268V112.896H67.6868ZM72.0903 116.856V118.968H79.6623V119.796H75.8343V122.316H80.1063V123.156H70.5543V122.316H74.8623V119.796H71.1303V116.028H78.5583V113.928H71.1303V113.088H79.5183V116.856H72.0903ZM86.67 114.852H89.922V113.016H90.87V118.476H85.722V113.016H86.67V114.852ZM89.922 117.648V115.68H86.67V117.648H89.922ZM94.218 112.896V115.464H95.862V116.304H94.218V119.004H93.258V112.896H94.218ZM87.306 120.696V122.928H94.362V123.756H86.346V119.868H94.218V120.696H87.306ZM97.5416 114.564C97.5416 114.12 97.7096 113.796 98.0696 113.532C98.7296 113.076 99.9776 112.896 101.874 112.896C103.77 112.896 105.018 113.076 105.666 113.532C106.026 113.796 106.206 114.12 106.206 114.564C106.206 114.984 106.026 115.32 105.666 115.572C105.018 116.04 103.77 116.232 101.874 116.232C99.9776 116.232 98.7296 116.04 98.0696 115.572C97.7096 115.32 97.5416 114.984 97.5416 114.564ZM98.5136 114.564C98.5136 114.756 98.5976 114.912 98.7896 115.032C99.2336 115.32 100.23 115.428 101.874 115.428C103.518 115.428 104.514 115.32 104.958 115.032C105.15 114.912 105.234 114.756 105.234 114.564C105.234 114.372 105.15 114.204 104.958 114.072C104.514 113.796 103.518 113.676 101.874 113.676C100.23 113.676 99.2336 113.796 98.7896 114.072C98.5976 114.204 98.5136 114.372 98.5136 114.564ZM97.0256 118.08V117.264H106.698V118.08H97.0256ZM98.7176 121.896V122.976H106.23V123.756H97.7576V121.104H105.006V120.012H97.7576V119.232H105.966V121.896H98.7176ZM116.861 115.488C116.201 116.784 114.605 117.78 112.277 118.176V117.324C114.653 116.868 116.369 115.644 116.369 113.508V112.956H117.341V113.508C117.341 115.632 119.093 116.856 121.445 117.324V118.176C119.141 117.768 117.533 116.796 116.861 115.488ZM112.097 120.816V119.964H121.649V120.816H117.341V123.816H116.369V120.816H112.097ZM127.265 115.608C127.265 114.66 127.565 113.928 128.117 113.46C128.597 113.04 129.269 112.824 130.049 112.824C130.829 112.824 131.489 113.04 131.957 113.46C132.533 113.928 132.833 114.66 132.833 115.608C132.833 116.556 132.533 117.3 131.957 117.768C131.489 118.176 130.829 118.404 130.049 118.404C129.269 118.404 128.597 118.176 128.117 117.768C127.565 117.3 127.265 116.556 127.265 115.608ZM128.201 115.608C128.201 116.256 128.405 116.772 128.753 117.108C129.077 117.396 129.509 117.564 130.049 117.564C130.577 117.564 131.021 117.396 131.333 117.108C131.693 116.772 131.885 116.256 131.885 115.608C131.885 114.972 131.693 114.456 131.333 114.12C131.021 113.82 130.577 113.664 130.049 113.664C129.509 113.664 129.077 113.82 128.753 114.12C128.405 114.456 128.201 114.972 128.201 115.608ZM136.061 118.872H135.101V112.896H136.061V118.872ZM132.113 123.768C131.285 123.42 130.433 122.664 130.073 121.92C129.677 122.676 128.657 123.456 127.553 123.768V122.916C128.621 122.544 129.569 121.536 129.569 120.144V119.676H130.541V120.132C130.541 121.368 131.285 122.364 132.101 122.856C132.929 122.364 133.697 121.368 133.697 120.132V119.676H134.657V120.144C134.657 121.536 135.569 122.52 136.673 122.916V123.768C135.569 123.456 134.561 122.688 134.141 121.92C133.793 122.664 132.977 123.396 132.113 123.768ZM143.381 114.744C142.589 115.764 140.801 116.52 138.869 116.736V115.884C140.801 115.656 142.901 114.744 142.901 113.22V112.956H143.873V113.22C143.873 114.744 145.901 115.608 147.917 115.884V116.736C145.937 116.508 144.209 115.764 143.381 114.744ZM138.569 118.572V117.744H148.241V118.572H138.569ZM139.301 119.592H140.261V120.78H146.549V119.592H147.509V123.756H139.301V119.592ZM146.549 122.94V121.596H140.261V122.94H146.549ZM155.188 122.88H150.544V113.016H151.492V122.052H155.356C156.484 122.052 157.492 121.74 158.092 121.188V112.896H159.064V123.624H158.092V121.992C157.54 122.556 156.436 122.88 155.188 122.88ZM166.6 122.88H161.968V113.088H167.032V113.928H162.928V122.052H166.756C167.86 122.052 168.808 121.764 169.36 121.236V112.896H170.32V117.408H172.072V118.248H170.32V123.636H169.36V122.04C168.844 122.58 167.788 122.88 166.6 122.88ZM174.615 121.56V122.988H173.475V121.56H174.615Z" fill="#191919"/>
<defs>
<filter id="filter0_d_974_6853" x="0" y="0" width="262" height="153" filterUnits="userSpaceOnUse" color-interpolation-filters="sRGB">
<feFlood flood-opacity="0" result="BackgroundImageFix"/>
<feColorMatrix in="SourceAlpha" type="matrix" values="0 0 0 0 0 0 0 0 0 0 0 0 0 0 0 0 0 0 127 0" result="hardAlpha"/>
<feOffset dy="4"/>
<feGaussianBlur stdDeviation="2"/>
<feComposite in2="hardAlpha" operator="out"/>
<feColorMatrix type="matrix" values="0 0 0 0 0.195721 0 0 0 0 0.248605 0 0 0 0 0.336507 0 0 0 0.1 0"/>
<feBlend mode="normal" in2="BackgroundImageFix" result="effect1_dropShadow_974_6853"/>
<feBlend mode="normal" in="SourceGraphic" in2="effect1_dropShadow_974_6853" result="shape"/>
</filter>
</defs>
</svg>
