<svg width="170" height="60" viewBox="0 0 170 60" fill="none" xmlns="http://www.w3.org/2000/svg">
<g clip-path="url(#clip0_76_3431)">
<path d="M9.96 21.41H16.33V28.85H18.83L29.18 17.57C26.28 15.49 22.74 14.25 18.91 14.25H0V59.4L9.96 49.54V21.4V21.41Z" fill="#145ED9"/>
<path d="M33.6 41.69C35.47 38.89 36.57 35.52 36.57 31.9C36.57 28.3 35.49 24.95 33.64 22.16L25.99 30.49C25.2 31.35 25.2 32.68 26 33.53L33.6 41.69Z" fill="#145ED9"/>
<path d="M18.86 35.23H16.34V49.55H18.92C22.74 49.55 26.26 48.33 29.15 46.27L18.86 35.23Z" fill="#145ED9"/>
<path d="M3.42 14.4H13.26L22.19 15.13L23.09 15.39C23.09 15.39 23.13 14.4 23.15 14.4C23.68 12.71 24.73 9.19 25.11 6.76C25.01 6.79 24.91 6.8 24.81 6.8C24.54 6.8 24.29 6.72 24.1 6.57C23.44 7.22 22.29 8.02 20.54 8.14C20.13 8.17 19.68 8.16 19.2 8.1C17.31 7.87 16.01 6.89 15.15 5.65C14.14 4.19 13.73 2.37 13.69 1C13.56 1.04 13.42 1.07 13.28 1.07C13.14 1.07 12.99 1.04 12.87 1C12.83 2.37 12.43 4.19 11.41 5.65C10.55 6.89 9.25 7.87 7.36 8.1C6.88 8.16 6.43 8.17 6.02 8.14C4.27 8.02 3.12 7.23 2.46 6.57C2.27 6.71 2.02 6.8 1.75 6.8C1.65 6.8 1.54 6.79 1.45 6.76C1.83 9.19 2.88 13.7 3.41 15.39C3.43 15.39 3.45 14.39 3.47 14.39L3.42 14.4Z" fill="#145ED9"/>
<path d="M2.68 6.31C2.68 6.84 2.24 7.28 1.69 7.28C1.14 7.28 0.7 6.85 0.7 6.31C0.7 5.77 1.14 5.34 1.69 5.34C2.24 5.34 2.68 5.77 2.68 6.31Z" fill="#145ED9"/>
<path d="M14.42 1.14C14.42 1.77 13.9 2.28 13.25 2.28C12.6 2.28 12.08 1.77 12.08 1.14C12.08 0.51 12.6 0 13.25 0C13.9 0 14.42 0.51 14.42 1.14Z" fill="#145ED9"/>
<path d="M25.62 6.31C25.62 6.84 25.18 7.28 24.63 7.28C24.08 7.28 23.64 6.85 23.64 6.31C23.64 5.77 24.08 5.34 24.63 5.34C25.18 5.34 25.62 5.77 25.62 6.31Z" fill="#145ED9"/>
</g>
<g clip-path="url(#clip1_76_3431)">
<path d="M75.75 14.49H81.38V50.29H75.75V40.3H54.35V34.67H56.93V20.12H54.35V14.49H73.87V20.12H71.29V34.67H75.75V29.51H72.46V23.88H75.75V14.49ZM65.19 34.67V20.12H63.03V34.67H65.19ZM88.41 14.49V50.29H82.78V14.49H88.41Z" fill="#145ED9"/>
<path d="M88.76 50.64H82.43V14.14H88.76V50.64ZM83.13 49.94H88.06V14.84H83.13V49.94ZM81.73 50.64H75.4V40.65H54V34.32H56.58V20.47H54V14.14H74.22V20.47H71.64V34.32H75.4V29.86H72.11V23.53H75.4V14.14H81.73V50.64ZM76.1 49.94H81.03V14.84H76.1V24.22H72.81V29.15H76.1V35.01H70.94V19.77H73.52V14.84H54.7V19.77H57.28V35.02H54.7V39.95H76.1V49.94ZM65.54 35.02H62.68V19.77H65.54V35.02ZM63.38 34.32H64.84V20.47H63.38V34.32Z" fill="#145ED9"/>
<path d="M106.9 38.66C100.33 38.66 94.56 33.59 94.56 26.51C94.56 19.8 100.33 14.36 106.9 14.36C113.47 14.36 119.24 19.66 119.24 26.51C119.24 33.36 113.47 38.66 106.9 38.66ZM106.81 20.83C103.48 20.83 100.99 23.36 100.99 26.65C100.99 29.94 103.48 32.47 106.81 32.47C110.14 32.47 112.63 29.94 112.63 26.65C112.63 23.36 110.14 20.83 106.81 20.83ZM129.24 14.49V50.29H122.67V14.49H129.24Z" fill="#145ED9"/>
<path d="M129.59 50.64H122.32V14.14H129.59V50.64ZM123.02 49.94H128.89V14.84H123.02V49.94ZM106.9 39.01C99.78 39.01 94.21 33.52 94.21 26.51C94.21 19.5 100.02 14 106.9 14C113.78 14 119.59 19.61 119.59 26.5C119.59 33.39 114.02 39 106.9 39V39.01ZM106.9 14.7C100.4 14.7 94.91 20.1 94.91 26.5C94.91 32.9 100.18 38.3 106.9 38.3C113.62 38.3 118.89 33.12 118.89 26.5C118.89 19.88 113.51 14.7 106.9 14.7ZM106.81 32.81C103.29 32.81 100.64 30.16 100.64 26.64C100.64 23.12 103.29 20.47 106.81 20.47C110.33 20.47 112.98 23.12 112.98 26.64C112.98 30.16 110.33 32.81 106.81 32.81ZM106.81 21.18C103.69 21.18 101.34 23.53 101.34 26.65C101.34 29.77 103.69 32.12 106.81 32.12C109.93 32.12 112.28 29.77 112.28 26.65C112.28 23.53 109.93 21.18 106.81 21.18Z" fill="#145ED9"/>
<path d="M158.8 14.49V36.07H152.23V29.5H138.15V23.87H152.23V20.12H137.22V14.49H158.8ZM162.55 14.49H169.12V39.83H164.94C167.52 41.8 169.16 44.9 169.16 48.37C169.16 54.28 164.33 59.07 158.42 59.07C152.51 59.07 147.67 54.28 147.67 48.37C147.67 42.46 152.5 37.63 158.42 37.63C159.87 37.63 161.28 37.91 162.55 38.47V14.49ZM158.42 43.49C155.79 43.49 153.59 45.7 153.59 48.37C153.59 51.04 155.8 53.2 158.42 53.2C161.04 53.2 163.3 51.04 163.3 48.37C163.3 45.7 161.09 43.49 158.42 43.49Z" fill="#145ED9"/>
<path d="M158.42 59.42C152.3 59.42 147.33 54.46 147.33 48.37C147.33 42.28 152.31 37.28 158.42 37.28C159.76 37.28 161.03 37.51 162.2 37.95V14.14H169.47V40.18H165.91C168.21 42.28 169.52 45.21 169.52 48.37C169.52 54.46 164.54 59.42 158.43 59.42H158.42ZM158.42 37.97C152.69 37.97 148.02 42.63 148.02 48.36C148.02 54.09 152.68 58.71 158.42 58.71C164.16 58.71 168.81 54.07 168.81 48.36C168.81 45.09 167.32 42.08 164.73 40.1L163.91 39.47H168.77V14.84H162.9V39L162.41 38.78C161.19 38.24 159.85 37.97 158.42 37.97ZM158.42 53.55C155.56 53.55 153.24 51.22 153.24 48.37C153.24 45.52 155.61 43.14 158.42 43.14C161.23 43.14 163.65 45.49 163.65 48.37C163.65 51.25 161.3 53.55 158.42 53.55ZM158.42 43.84C155.99 43.84 153.94 45.91 153.94 48.37C153.94 50.83 155.95 52.85 158.42 52.85C160.89 52.85 162.95 50.84 162.95 48.37C162.95 45.9 160.92 43.84 158.42 43.84ZM159.15 36.42H151.88V29.85H137.8V23.52H151.88V20.47H136.87V14.14H159.15V36.42ZM152.58 35.72H158.45V14.84H137.57V19.77H152.58V24.22H138.5V29.15H152.58V35.72Z" fill="#145ED9"/>
</g>
<defs>
<clipPath id="clip0_76_3431">
<rect width="36.57" height="59.41" fill="white"/>
</clipPath>
<clipPath id="clip1_76_3431">
<rect width="115.52" height="45.42" fill="white" transform="translate(54 14)"/>
</clipPath>
</defs>
</svg>
