<svg width="32" height="32" viewBox="0 0 32 32" fill="none" xmlns="http://www.w3.org/2000/svg">
  <rect width="32" height="32" rx="8" fill="#145ED9"/>
  <g transform="translate(6 0) scale(0.4)">
    <path d="M13.6177 28.8302H22.327V38.8487H25.7451L39.8961 23.6593C35.9311 20.8585 31.0911 19.1887 25.8545 19.1887H0V79.9866L13.6177 66.7093V28.8167V28.8302Z" fill="white"/>
    <path d="M45.9397 56.1387C48.4964 52.3683 50.0004 47.8303 50.0004 42.9557C50.0004 38.1081 48.5237 33.597 45.9943 29.8401L35.535 41.0571C34.4548 42.2151 34.4548 44.0061 35.5486 45.1506L45.9397 56.1387Z" fill="white"/>
    <path d="M25.7863 47.4399H22.3408V66.7229H25.8683C31.0912 66.7229 35.9039 65.0801 39.8552 62.3061L25.7863 47.4399Z" fill="white"/>
    <path d="M4.67589 19.3908H18.1295L30.339 20.3738L31.5695 20.7239C31.5695 20.7239 31.6242 19.3908 31.6515 19.3908C32.3762 17.1151 33.8118 12.3751 34.3313 9.10295C34.1946 9.14335 34.0579 9.15681 33.9212 9.15681C33.552 9.15681 33.2102 9.04909 32.9504 8.8471C32.048 9.72237 30.4757 10.7996 28.0831 10.9612C27.5225 11.0016 26.9072 10.9882 26.2509 10.9074C23.6669 10.5976 21.8895 9.278 20.7136 7.60825C19.3327 5.64225 18.7721 3.19149 18.7175 1.34668C18.5397 1.40054 18.3483 1.44094 18.1569 1.44094C17.9655 1.44094 17.7604 1.40054 17.5963 1.34668C17.5416 3.19149 16.9947 5.64225 15.6001 7.60825C14.4243 9.278 12.6469 10.5976 10.0628 10.9074C9.40654 10.9882 8.79128 11.0016 8.23071 10.9612C5.83804 10.7996 4.26571 9.73584 3.36334 8.8471C3.10356 9.03562 2.76175 9.15681 2.39259 9.15681C2.25587 9.15681 2.10547 9.14335 1.98242 9.10295C2.50197 12.3751 3.93758 18.4482 4.66221 20.7239C4.68956 20.7239 4.7169 19.3773 4.74425 19.3773L4.67589 19.3908Z" fill="white"/>
    <path d="M3.66417 8.49685C3.66417 9.21054 3.06258 9.80303 2.3106 9.80303C1.55862 9.80303 0.957031 9.224 0.957031 8.49685C0.957031 7.7697 1.55862 7.19067 2.3106 7.19067C3.06258 7.19067 3.66417 7.7697 3.66417 8.49685Z" fill="white"/>
    <path d="M19.7159 1.5351C19.7159 2.38344 19.005 3.07019 18.1163 3.07019C17.2276 3.07019 16.5166 2.38344 16.5166 1.5351C16.5166 0.686753 17.2276 0 18.1163 0C19.005 0 19.7159 0.686753 19.7159 1.5351Z" fill="white"/>
    <path d="M35.0284 8.49685C35.0284 9.21054 34.4268 9.80303 33.6749 9.80303C32.9229 9.80303 32.3213 9.224 32.3213 8.49685C32.3213 7.7697 32.9229 7.19067 33.6749 7.19067C34.4268 7.19067 35.0284 7.7697 35.0284 8.49685Z" fill="white"/>
  </g>
</svg>
